<?xml version="1.0" encoding="utf-8"?>
<!-- Generator: Adobe Illustrator 22.0.1, SVG Export Plug-In . SVG Version: 6.00 Build 0)  -->
<svg version="1.1" id="レイヤー_1" xmlns="http://www.w3.org/2000/svg" xmlns:xlink="http://www.w3.org/1999/xlink" x="0px"
	 y="0px" viewBox="0 0 193.9 62.4" style="enable-background:new 0 0 193.9 62.4;" xml:space="preserve">
<style type="text/css">
	.st0{fill:#FFFFFF;}
</style>
<title>misw_logo</title>
<g id="レイヤー_2_1_">
	<g id="レイヤー_1-2">
		<path class="st0" d="M140.8,46.2c0.5-3.8-1.5-7.5-5-9.1c-2.8-1.5-5.9-2-8.9-2.8c-3.2-0.9-6.4-1.7-9.6-2.5c-1.6-0.4-3.1-1-4.4-1.9
			c-2.9-2-3.8-4.8-3.3-8.2c0.4-3.1,2.3-4.9,5.2-6c0.1,0,0.2,0,0.3,0c6.8-0.9,13.7-0.2,20.6-0.4c2.2-0.1,4.4,0,6.6,0
			c0.4,0,0.9-0.1,1.1,0.4l-2.9,5.4c-0.1,0.2-0.2,0.5-0.6,0.4s-0.2-0.3-0.2-0.5c0-0.8-0.5-0.8-1-0.8h-19.2c-0.9-0.1-1.9,0.1-2.8,0.3
			c-1.3,0.4-2,1.7-1.7,2.9c0.1,0.5,0.4,0.9,0.8,1.2c1.1,1,2.4,1.7,3.9,2c4.3,1.2,8.5,2.3,12.8,3.4c2.6,0.6,5.1,1.6,7.3,3
			c4.1,2.4,6.6,6.8,6.5,11.6c0,2,0,4,0,5.9c0,0.5-0.1,0.7-0.6,0.7c-12.4,0-24.8,0-37.2,0l-0.2-0.1l2.2-4.8c0.5-0.1,1-0.2,1.5-0.1
			h27.6c1.4,0,1.4,0,1.4-1.4C140.9,45.4,141.4,45.9,140.8,46.2z"/>
		<path class="st0" d="M73.2,41.6l11.5-27.3c0.8,3.3,1.5,6.3,2.3,9.3c2.2,9,4.3,18,6.5,27c0.2,0.8,0,1-0.8,1c-1.5-0.1-3,0-4.5,0
			c-0.2,0-0.6,0.1-0.7-0.2s0.1-0.5,0.3-0.7c0.5-0.4,0.6-1.1,0.4-1.7l-4.7-20c0-0.1-0.1-0.2-0.2-0.5L73,52.9L62.2,28.6
			c-0.5,2.2-0.9,4.2-1.4,6.2l-3,13.6c-0.2,0.8-0.3,1.6,0.4,2.2c0.2,0.1,0.3,0.4,0.2,0.6c-0.1,0.3-0.4,0.2-0.6,0.2
			c-1.6,0-3.2,0-4.7,0c-0.7,0-0.8-0.2-0.6-0.8c1.4-5.5,2.7-11.1,4.1-16.6l4.7-18.9c0-0.2,0.1-0.4,0.2-0.8L73.2,41.6z"/>
		<path class="st0" d="M154.3,18.5l7.4,20.8l9.9-24.1l9.9,23.7l2-5.9l4.7-13.7c0.3-0.7,0.4-1.5,0.1-2.2c-0.3-0.9-0.3-0.9,0.6-0.9
			c1.3,0,2.7,0,4,0c0.6,0,0.8,0.1,0.5,0.8c-0.4,0.7-0.5,1.4-0.6,2.2c-1.5,4.5-3.1,9-4.6,13.5c-2.1,6.2-4.3,12.5-6.5,19l-10.3-25.4
			l-10.1,25.4c-0.2-0.6-0.4-1-0.5-1.4l-11-31.1c-0.1-0.2-0.1-0.5-0.2-0.7c-0.1-0.6-0.2-1.2-0.5-1.7c-0.1-0.4,0-0.6,0.4-0.6
			c1.6,0,3.1,0,4.7,0c0.5,0,0.6,0.3,0.3,0.6C154.1,17.3,154,18,154.3,18.5z"/>
		<path class="st0" d="M0.4,46.6c-0.7-2,0.3-3,1.9-4.1c5.6-4,11.2-8.2,16.7-12.5c0.7-0.5,1.1-0.7,1.4,0.3c0.3,0.9,0.9,1.6,1.7,2.1
			c0.8,0.5,0.9,0.9,0.2,1.5c-0.1,0.1-0.2,0.3-0.3,0.4c-0.1,0.5-0.4,1-0.7,1.4C16.6,41.8,12,48,7.4,54c-1.1,1.4-1.3,1.5-2.8,0.4
			c-2-1.5-3.4-3.7-4-6.1C0.5,47.8,0.1,47.2,0.4,46.6z"/>
		<path class="st0" d="M103.6,49.8c0.2,0.5,1.2,0.9,0.9,1.4s-1.1,0.2-1.7,0.2c-1.6,0-3.3,0-4.9,0c-0.2,0-0.5,0.1-0.6-0.2
			c-0.1-0.3,0-0.6,0.2-0.7c0.6-0.5,0.8-1.3,0.7-2c0-10.2,0-20.4,0-30.6c0.1-0.5,0-0.9-0.2-1.4c0-0.2-0.1-0.4-0.3-0.5
			c-0.2-0.4-0.1-0.7,0.3-0.7c1.9,0,3.8,0,5.8,0c0.5,0,0.5,0.3,0.2,0.7c-0.2,0.2-0.3,0.4-0.4,0.6l0,0c-0.3,0.2-0.2,0.5-0.2,0.8
			c0,10.6,0,21.1,0,31.7C103.4,49.3,103.3,49.6,103.6,49.8z"/>
		<path class="st0" d="M15.5,55.7c-0.7-0.1-1.3,0.2-2,0.2c0.1-0.3,0.2-0.7,0.5-0.9c4.3-6.6,8.6-13.2,12.9-19.9c0.3-0.6,0.9-1,1.6-1
			c1.8-0.2,3.6-0.7,5.2-1.4l-0.5,2.1c-0.3,2.4-0.7,4.7-1.3,7.1c-0.5,1.9-0.9,3.8-1.3,5.7c-0.1,0.7-0.5,1.2-1.1,1.6
			c-3.5,2.5-7.4,4.5-11.5,6C17.2,55.3,16.3,55.5,15.5,55.7z"/>
		<path class="st0" d="M0.5,36.8c0.6-3.6,1.8-7,3.6-10.2c2-3.9,2-3.8,6.2-4.9l8.7-2.1c1.1-0.3,1.1-0.3,0.9,0.9
			c-0.3,1.5-0.5,2.9-0.8,4.4c-0.4,0.7-1.1,1-1.7,1.4c-5.1,3.3-10.2,6.7-15.3,10C1.6,36.5,1.2,36.9,0.5,36.8z"/>
		<path class="st0" d="M36.8,42.3c0.6-4.1,1.2-8.1,1.8-12.2c0-0.2,0.1-0.4,0.3-0.6c1.4-1,2.7-2.2,4-3.4c0.9,2.1,1.8,4.2,2.7,6.2
			c0.2,0.5-0.4,0.8-0.4,1.2c-0.1,0.3-0.3,0.7-0.5,0.9c-2,2.5-4.1,4.9-6.3,7.2c-0.3,0.4-0.7,0.7-1.2,0.9
			C37.1,42.6,36.8,42.8,36.8,42.3z"/>
		<path class="st0" d="M0.8,48.4c0.5,1.6,1.2,3,2.2,4.3c0.8,0.8,1.6,1.6,2.6,2.2c0.5,0.3,0.7,0.1,1-0.3c4.7-6.2,9.3-12.4,14-18.6
			c0.1-0.2,0.3-0.3,0.4-0.4c0.5,0.2,0.7,0.7,0.7,1.2c0,0.3-0.1,0.7-0.4,0.9C16.6,44.4,11.8,51.2,7,57.9c-0.6,0.8-0.9,0.9-1.7,0.3
			c-2.6-1.7-4.4-4.5-4.8-7.6c0-0.2,0-0.3-0.1-0.5v-0.5C0.2,49.1,0.2,48.7,0.8,48.4z"/>
		<path class="st0" d="M11.9,16.5c-0.1,0-0.3,0.1-0.4,0s0-0.3,0.1-0.4c0.7-0.8,1.4-1.5,2.2-2.2c2-2,4.2-3.8,6.5-5.5
			c0.4-0.3,0.9-0.4,1.4-0.2c1.6,0.6,3.3,1.2,5,1.9c0,0.4-0.4,0.6-0.6,0.8c-0.8,1.2-1.7,2.4-2.7,3.5c-0.4,0.3-0.9,0.5-1.4,0.6l-9,1.7
			C12.6,16.7,12.2,16.5,11.9,16.5z"/>
		<path class="st0" d="M0.4,50.2c0.5,1.8,1.2,3.4,2.1,5c0.8,1.2,1.9,2.2,3.2,3c0.4,0.2,0.7,0.3,1-0.2c5-7.1,10.1-14.2,15.1-21.3
			c0-0.1,0.1-0.1,0.2,0c0.7,0.3,0.8,0.7,0.3,1.4C17.2,45.7,12.1,53.2,7,60.8c-0.4,0.6-0.7,0.7-1.3,0.3c-2.3-1.7-4-4.1-4.7-6.9
			C0.6,52.9,0.4,51.6,0.4,50.2z"/>
		<path class="st0" d="M33,37.1c0.5,0.1,0.3,0.3,0.3,0.7c-0.9,4.4-1.7,8.8-2.6,13.2c-0.1,0.3-0.1,0.7-0.1,1
			c-0.1,1.9-1.1,3.1-2.7,4.1c-4.3,2.9-8.7,5.4-13.9,6.3c-0.1,0-0.2,0-0.2,0c0.3-0.7,0.6-1.4,1.1-2c0.2-0.4,0.7-0.8,0.5-1.3
			c0-0.3,0.2-0.3,0.4-0.4c3.7-1,7.1-2.6,10.3-4.7c0.8-0.5,1.6-1.1,2.4-1.6c0.8-0.4,1.4-1.2,1.6-2.1c0.8-4.1,1.8-8.2,2.7-12.2
			C32.7,37.7,32.8,37.4,33,37.1z"/>
		<path class="st0" d="M33,37.1c-1,4.5-1.9,9-2.8,13.5C30,51.3,29.6,52,29,52.4c-3.8,2.8-8.1,5-12.7,6.4c-0.2,0-0.4,0.1-0.6,0.1
			c-0.1-0.1-0.1-0.3,0-0.5c0.6-1.3,1.4-2.4,2.2-3.5c4-1.5,7.9-3.5,11.4-6c0.5-0.3,0.9-0.8,1-1.4c0.9-4.2,2-8.3,2.7-12.5
			c0-0.1,0.1-0.2,0.2-0.2C33.5,35.5,33.1,36.3,33,37.1z"/>
		<path class="st0" d="M0.5,36.8c3.5-2.1,6.9-4.4,10.4-6.7c2.7-1.8,5.4-3.5,8.2-5.3l-0.2,1.8c-0.3,0.5-0.7,0.8-1.2,1.1
			c-5.3,3.6-10.6,7.1-15.8,10.8c-0.4,0.3-0.8,0.5-1.3,0.6c-0.4-0.4,0-0.8,0-1.2S0.9,37.1,0.5,36.8z"/>
		<path class="st0" d="M153,51.4c-1.8,0-3.3-1.4-3.3-3.2c0,0,0-0.1,0-0.1c0-1.8,1.4-3.2,3.2-3.2c0,0,0,0,0,0c1.8,0,3.3,1.4,3.3,3.2
			C156.2,50,154.8,51.4,153,51.4L153,51.4z"/>
		<path class="st0" d="M46.5,23.4c-0.4-0.6-0.4-1.4,0.1-1.9c0.6-0.9,1.1-1.8,1.6-2.8c0.2-0.4,0.4-0.5,0.8-0.3
			c0.8,0.3,1.6,0.6,2.4,0.9c0.7,0.2,1,0.5,0.6,1.3c-0.1,0.2-0.2,0.5-0.2,0.8c0.1,0.4-0.2,0.8-0.3,1.1c-0.6,1.6-1.3,3.1-2.1,4.6
			c-0.2,0.3-0.3,0.7-0.7,0.8s-0.6-0.4-0.7-0.7C47.5,25.9,46.7,24.8,46.5,23.4z"/>
		<path class="st0" d="M0.6,39.1l18.4-12.5c0.2,0.9-0.3,1.9-1.2,2.3c-5.6,4-11.2,7.9-16.8,11.9l-0.5,0.3C0.3,40.4,0.9,39.8,0.6,39.1
			z"/>
		<path class="st0" d="M25.5,5.3c-0.3-0.2,0-0.3,0.1-0.4c2-1.2,4-2.2,6.1-3C32,1.8,32.3,1.6,32.5,2c0.4,1,0.9,2,1.3,3
			c0,0.1-0.1,0.2-0.2,0.2c-0.9,0.8-1.9,1.4-3,2c-0.2,0.1-0.4,0.1-0.6,0.1c-1.4-0.5-2.8-1-4.2-1.7C25.7,5.6,25.7,5.4,25.5,5.3z"/>
		<path class="st0" d="M36.8,42.3c0.5,0.3,0.8-0.2,1-0.5c2.2-2.1,4.2-4.4,6.1-6.8c0.2-0.3,0.5-0.5,0.8-0.8c0.7,0.1,0.7,0.6,0.7,1.1
			c0,1.1-0.8,1.8-1.4,2.5c-1.9,2.6-4.1,5.1-6.4,7.3c-0.3,0.2-0.5,0.7-1,0.5c0,0,0,0,0-0.1c0,0,0-0.1,0-0.1
			C36.9,44.5,36.9,43.4,36.8,42.3z"/>
		<path class="st0" d="M36.6,45.6c0.2,0.2,0.4-0.1,0.5-0.2c3-2.9,5.7-6.1,8.1-9.6c0-0.1,0.1-0.2,0.1-0.3c0-0.1,0.1-0.1,0.2,0
			c0.6,1.2,0,2.2-0.7,3.2c-2.2,3.2-4.6,6.2-7.2,9c-0.2,0.2-0.5,0.5-1,0.9C36.9,47.6,36.9,46.6,36.6,45.6z"/>
		<path class="st0" d="M12.9,16.4l9-1.6c0.8-0.1,1.4-0.5,1.9-1.2c0.6-1,1.4-1.9,2.3-2.6c0.4,0.3,0.3,0.5,0,0.8c-0.1,0.9-1,1.3-1.5,2
			c-1.8,2.5-1.8,2.4-4.9,2.9c-2.3,0.4-4.6,0.9-6.9,1.2c-0.8-0.2-0.9-0.4-0.4-1C12.5,16.7,12.7,16.5,12.9,16.4z"/>
		<path class="st0" d="M35.7,0.7c1.6-0.4,3.2-0.6,4.8-0.7c0.6,0,0.8,0.1,0.6,0.7c-0.3,0.8-0.1,1.7-0.8,2.4c-1,0.5-2,0.7-3.1,0.8
			c-0.3,0.1-0.6-0.1-0.7-0.4c-0.4-0.6-0.7-1.4-0.9-2.1C35.6,1.2,35.4,0.9,35.7,0.7z"/>
		<path class="st0" d="M53,11.1c0.5-0.1,0.7,0.2,0.7,0.7c0,1.5-0.1,2.9-0.3,4.4c-0.1,0.2-0.2,0.4-0.4,0.3c-1.1-0.4-2.3-0.5-3.1-1.5
			c0.2-1,0.3-2,0.4-3C50.9,11.2,52,11.2,53,11.1z"/>
		<path class="st0" d="M12.7,17.6l9.5-1.7c0.4-0.1,0.8-0.3,1-0.6C24,14,25,12.8,26,11.7c0.2,0.4,0.1,0.6-0.2,0.9
			c-1.1,1.1-2,2.3-2.8,3.6c-0.4,0.7-1.1,0.8-1.8,0.9L11,19c0-0.4,0.9-0.8,0.1-1.2C11.6,17.3,12.2,17.9,12.7,17.6z"/>
		<path class="st0" d="M143.4,15.8c-0.4-0.2-0.8-0.3-1.2-0.2c-8.1,0-16.2,0-24.3,0c-0.7,0-1.4,0.1-2.1,0.3c-0.3,0.1-0.6,0.2-0.8-0.1
			c1.3-0.5,2.6-0.7,4-0.6c7.9,0,15.8,0,23.7,0C143.1,15.2,144,14.8,143.4,15.8z"/>
		<path class="st0" d="M49.5,7.5c0.5-1.1,1.7-1.4,2.5-2.2c0.6,1,1,2.1,1.2,3.2c0.1,0.2,0,0.4-0.2,0.4c-0.7,0.5-1.6,0.8-2.4,0.7
			c-0.8,0.1-0.9-0.7-1-1.2C49.5,8.1,49.8,7.8,49.5,7.5z"/>
		<path class="st0" d="M52,23c0,1.2-0.3,2.3-0.8,3.3c-0.6,1.9-1.4,3.7-2.4,5.4L46.2,26c-0.2-0.3-0.1-0.7,0.2-0.9c0,0,0.1,0,0.1-0.1
			c0.5,0,0.6,0.5,0.8,0.8c0.5,1.1,1,2.2,1.7,3.3c0.9-1.6,1.7-3.3,2.2-5c0.1-0.4,0.2-0.7,0.4-1C51.7,23,51.9,23,52,23z"/>
		<path class="st0" d="M43.3,0.6c0-0.4,0.2-0.5,0.6-0.4c0.5,0.1,1.1,0.2,1.7,0.3c1.6,0.4,1.6,0.5,0.7,1.9C46,2.7,45.8,3,45.5,3.3
			c-0.8,0.4-1.8,0.4-2.5-0.1c-0.2-0.2-0.2-0.4-0.2-0.6C42.8,1.9,43,1.2,43.3,0.6z"/>
		<path class="st0" d="M51.8,23.2c-0.7,2.2-1.6,4.4-2.8,6.5c-1.1-1.5-1.5-3.3-2.5-4.7c0-0.5-0.5-1.1,0-1.6c0.6,1.3,1.3,2.6,1.9,3.8
			c0.1,0.2,0.1,0.5,0.4,0.5c0.1,0,0.3-0.3,0.3-0.5c0.8-1.6,1.6-3.2,2.3-4.9C51.8,22.6,51.9,23,51.8,23.2z"/>
		<path class="st0" d="M47.1,4c0.2-0.4,0.4-0.7,0.7-1.1c0.8-1.2,0.8-1.2,1.9-0.3c0.4,0.3,0.7,0.6,1,0.9s0.2,0.6-0.2,0.8
			c-0.2,0.3-0.4,0.6-0.7,0.8c-0.2,0.1-0.5,0.3-0.7,0.4c-0.7,0.4-1.6,0.1-1.9-0.6C47.1,4.6,47,4.3,47.1,4z"/>
		<path class="st0" d="M17.9,54.8c-0.6,1.4-1.6,2.6-2.2,4L15.3,59c-0.6,0.2-1.2,0.2-1.8,0.2c0.5-1.3,1.6-2.3,2-3.6
			C16.2,55.2,17.1,55,17.9,54.8z"/>
		<path class="st0" d="M25.5,5.3c1.4,0.5,2.7,1,4,1.7C30,7.2,30.6,7.1,31,6.8c0.8-0.6,1.7-1.1,2.6-1.5c0.1,0.3,0.1,0.6-0.2,0.8
			c-0.9,0.8-2.1,1.3-3,2.1c-0.3,0.2-0.6,0.2-0.9,0.1c-1.4-0.6-2.8-1.1-4.1-1.8c-0.1-0.1-0.2-0.2-0.2-0.3C24.9,5.7,25.7,5.7,25.5,5.3
			z"/>
		<path class="st0" d="M103.6,49.8c-0.5,0.1-0.2-0.3-0.2-0.4c0-10.7,0-21.3,0-32c0-0.3-0.1-0.6,0.3-0.8c0,3.2,0,6.4,0,9.6
			C103.6,34.1,103.5,41.9,103.6,49.8z"/>
		<path class="st0" d="M140.8,46.2c0.5-0.6,0-1.4,0.3-2c0,0,0.1,0.1,0.1,0.1c0.2,2.3,0.2,2.3-2.1,2.3c-9,0-18,0-27.1,0
			c-0.5,0-1,0.2-1.4-0.1c0-0.1,0-0.1,0.1-0.1c0,0,0,0,0,0c0.3-0.1,0.7-0.2,1.1-0.1h28C140,46.3,140.4,46.4,140.8,46.2L140.8,46.2z"
			/>
		<path class="st0" d="M140.8,46.2c-0.3,0.4-0.8,0.2-1.1,0.2h-29.1c0.3-0.4,0.7-0.2,1.1-0.2L140.8,46.2z"/>
		<path class="st0" d="M49.8,15c1,0.5,2,0.9,3,1.3c0.2,0.1,0.4,0,0.5-0.1L53.1,18c-0.1,0.1-0.2,0.2-0.3,0.1
			c-1.2-0.2-2.3-0.8-3.2-1.6L49.8,15z"/>
		<path class="st0" d="M25.1,6.1c1.4,0.6,2.8,1.1,4.1,1.8c0.4,0.2,1,0.2,1.4-0.2c0.8-0.7,1.8-1.2,2.7-1.7c0.1,0.4-0.3,0.5-0.6,0.7
			c-0.8,0.5-1.6,1-2.4,1.6c-0.4,0.4-1,0.4-1.4,0.1c-1.3-0.6-2.5-1.2-3.8-1.8C24.6,6.5,24.9,6.4,25.1,6.1z"/>
		<path class="st0" d="M49.6,16.5c1.2,0.6,2.3,1,3.6,1.4c-0.4,1.4-0.4,1.4-1.8,0.8c-0.2-0.1-0.5-0.2-0.7-0.3
			C49.7,18.1,49.1,17.6,49.6,16.5z"/>
		<path class="st0" d="M49.8,8.3c0.2,1.2,0.9,1.3,1.8,1c0.5-0.1,1-0.2,1.4-0.3c-0.3,0.4,0.3,0.8-0.1,1.2c-0.7,0.5-1.6,0.8-2.5,0.8
			c-0.6,0.1-0.9-0.3-1-0.8s-0.3-0.8-0.1-1.3C49.4,8.6,49.5,8.4,49.8,8.3z"/>
		<path class="st0" d="M103.6,16.6c-0.1-0.4,0.3-0.6,0.4-1h-6.3c-0.3,0.4,0.7,0.5,0.2,1c-0.2-0.1-0.4-0.3-0.5-0.5
			c-0.2-0.2-0.3-0.5-0.2-0.7c0.1-0.4,0.4-0.2,0.7-0.2c1.9,0,3.9,0,5.8,0c0.3,0,0.7-0.2,0.9,0.2s-0.3,0.5-0.5,0.8
			S103.7,16.5,103.6,16.6z"/>
		<path class="st0" d="M49.5,8.8c0.3,2,0.3,2,2.2,1.6l1.3-0.3c-0.2,0.3-0.2,0.7-0.2,1c-0.7,0.2-1.4,0.3-2.1,0.5
			c-0.4,0.1-0.8,0.1-1.2-0.3c-0.1-0.5-0.2-1-0.4-1.5C49,9.4,49.1,9,49.4,8.7C49.4,8.6,49.5,8.6,49.5,8.8z"/>
		<path class="st0" d="M43.3,0.6c0,0.2-0.1,0.4-0.1,0.6c0,0.6-0.6,1.4-0.1,1.7c0.7,0.5,1.6,0.6,2.5,0.3c-0.1,0.4-0.4,0.7-0.6,1
			c-0.8,0.2-1.6,0.1-2.3-0.3c-0.3-0.1-0.3-0.4-0.2-0.7C42.8,2.4,42.4,1.3,43.3,0.6z"/>
		<path class="st0" d="M35.7,0.7v0.8c0.2,0.7,0.6,1.3,0.9,2s0.7,0.7,1.3,0.6s1.4-0.6,2.1-0.1c0,0.3-0.3,0.6-0.6,0.6c0,0,0,0,0,0
			h-0.6c-0.7,0-1.7,0.9-2.1,0.2c-0.7-1.2-1.7-2.4-1.1-4C35.5,0.7,35.6,0.7,35.7,0.7z"/>
		<path class="st0" d="M47.1,4c0.4,1.3,1.2,1.6,2.4,1c0.2-0.1,0.3-0.1,0.5-0.2c0.3-0.1,0.3,0.1,0.4,0.3c-0.4,0.8-1.2,1-1.8,1.5
			c-0.3,0.2-0.7,0-0.9-0.3c-0.4-0.4-1-0.7-0.9-1.3C47.1,4.8,46.7,4.3,47.1,4z"/>
		<path class="st0" d="M39.9,3.9c-0.7,0-1.5,0.1-2.1,0.4c-0.7,0.2-1,0-1.2-0.6c-0.4-0.7-0.7-1.5-0.9-2.3c0.7,0.6,0.5,2,1.5,2.2
			c0.9,0,1.8-0.2,2.7-0.5c0.1,0,0.3,0,0.4,0C40.1,3.3,40.2,3.7,39.9,3.9z"/>
		<path class="st0" d="M46.7,5.1c0.3,0.6,0.9,0.8,1.2,1.3c0.2,0.3,0.4,0.2,0.7,0c0.5-0.4,1-0.7,1.5-1.1c0.1-0.2,0.2-0.3,0.4-0.2
			c-0.2,0.5-2.2,2.3-2.5,2.2c-0.6-0.2-1-0.8-1.4-1.2S46.5,5.4,46.7,5.1z"/>
		<path class="st0" d="M154.3,18.5c0,0.1-0.2,0.3-0.2,0.2c0-0.6-0.2-1.3,0.3-1.8s0.2-0.6-0.3-0.6c-1.4,0-2.9,0-4.3,0
			c-0.5,0-0.5,0.2-0.4,0.6s0.6,1,0.3,1.6c-1.2-2.5-1.2-2.5,1.5-2.5h3.3c0.2,0,0.4-0.1,0.6,0.1c0.1,0.2,0,0.5-0.2,0.6
			C154.4,17.3,154.2,17.9,154.3,18.5z"/>
		<path class="st0" d="M192.9,19.2c-0.4-0.7,0.2-1.3,0.4-1.8c0.3-0.8,0.1-1-0.8-1c-1.1,0.1-2.2,0-3.3,0c-0.6,0-1.1-0.1-0.9,0.8
			c-0.3-0.2-0.6-0.5-0.4-0.8s0.5-0.2,0.8-0.2c1.6,0,3.1,0,4.7,0c0.5,0,0.6,0.2,0.4,0.6C193.5,17.6,193.2,18.4,192.9,19.2z"/>
		<path class="st0" d="M21.9,36.7h-0.2c0-0.5-0.6-0.7-0.6-1.3l0.8-1.2c0,0.1,0,0.2,0,0.2C23,35.2,22.4,36,21.9,36.7z"/>
		<path class="st0" d="M42.5,3.3c0,0.3,0,0.6,0.5,0.6c0.7,0.1,1.3,0.3,2,0.4C44.8,4.8,44.5,5,44,4.8c-0.3-0.1-0.7-0.2-1-0.2
			C42.1,4.5,42.1,4,42.5,3.3z"/>
		<path class="st0" d="M45.5,35.5h-0.2c-0.1-0.5-0.3-0.9-0.7-1.3c0.1-0.4,0.3-0.7,0.6-0.8C45.8,34.1,46.2,34.8,45.5,35.5z"/>
		<path class="st0" d="M0.8,48.4c-0.2,0.4-0.5,0.8-0.4,1.3C0.2,48.8,0.1,48,0,47.2c0-0.3,0.1-0.5,0.4-0.6L0.8,48.4z"/>
		<path class="st0" d="M12.7,17.6c-0.5,0.3-1.1,0.1-1.6,0.2c0.1-0.5,0.9-0.6,0.8-1.2c0.3-0.3,0.7-0.1,1-0.2c0,0.4-0.3,0.5-0.5,0.8
			C11.9,17.8,12.5,17.5,12.7,17.6z"/>
		<path class="st0" d="M49.5,11.3c0.7,0.5,1.4,0,2.1-0.1c0.4,0,0.8-0.1,1.2-0.1c0.1,0,0.1,0,0.2,0c-0.9,0.5-1.9,0.4-2.8,0.9
			C50,11.7,49.5,11.8,49.5,11.3z"/>
		<path class="st0" d="M51.8,23.2l-0.2-0.8l0.4-1c0.4,0.1,0.3,0.3,0.2,0.6s-0.2,0.7-0.2,1L51.8,23.2z"/>
		<path class="st0" d="M50.5,5.1l-0.4,0.2c0-0.2-0.1-0.4-0.2-0.4c0.2-0.3,0.4-0.5,0.7-0.6C50.6,4.6,51,4.8,50.5,5.1z"/>
		<path class="st0" d="M49.5,8.8l-0.2-0.1c-0.2-0.4,0.4-0.8,0.2-1.2c0.3,0.2,0.2,0.5,0.2,0.8L49.5,8.8z"/>
		<path class="st0" d="M139.1,20.2h-20.8v-0.1h20.8L139.1,20.2z"/>
	</g>
</g>
</svg>
