<svg width="500" height="100" xmlns:xlink="http://www.w3.org/1999/xlink" xmlns="http://www.w3.org/2000/svg"><defs><clipPath id="c"><use xlink:href="#a" clip-rule="evenodd"/></clipPath><clipPath id="d"><use xlink:href="#b"/></clipPath><path d="M0 0h500v100H0V0z" id="b"/><path id="a" d="M0 0h500v100H0z"/></defs><g clip-path="url(#c)"><use xlink:href="#a" fill="none"/><path d="M0 0h500v100H0V0z" fill="#E54F6D" fill-rule="evenodd"/><use fill="#221B2E" xlink:href="#b" fill-rule="evenodd"/><g clip-path="url(#d)"><use xlink:href="#b" fill="none" stroke="#E54F6D" stroke-width="4"/></g><path d="M163.824 34.178h-10.548v2.628h10.548v-2.628zm1.368 4.752H151.44v2.664h13.752V38.93zm-4.212 17.244v5.184h-5.04v-5.184h5.04zm2.916-2.7H153.06V65.57h2.88v-1.512h7.956V53.474zm-10.764-2.232h10.8v-2.628h-10.8v2.628zm0-4.824h10.8v-2.592h-10.8v2.592zm31.5 7.992h-8.208v-4.464h6.876v-3.024h-6.876v-4.14h7.668v-3.024h-4.356c.936-1.584 2.016-3.816 3.06-5.868l-3.312-.972c-.54 1.908-1.728 4.608-2.592 6.3l1.512.54h-7.236l1.512-.612c-.396-1.656-1.548-4.104-2.7-5.976l-2.7.972c1.008 1.728 1.944 3.96 2.412 5.616h-3.744v3.024h7.2v4.14h-6.516v3.024h6.516v4.464h-8.352v3.06h8.352v8.532h3.276V57.47h8.208v-3.06zm59.684-18.858l3.162 2.822c-.85.646-1.938 1.564-2.618 2.108-2.278 1.904-6.97 5.61-9.384 7.65-1.938 1.666-1.938 2.108.068 3.842 2.89 2.38 9.078 7.31 12.614 10.846l-3.094 2.822c-.816-.918-1.7-1.87-2.584-2.754-2.278-2.312-7.344-6.664-10.506-9.316-3.298-2.754-2.958-4.386.272-7.072 2.618-2.176 7.548-6.12 9.86-8.398.782-.816 1.768-1.836 2.21-2.55zm-48.832.918l4.352.034a31.01 31.01 0 00-.374 3.91c-.17 3.774-.408 11.628-.408 16.32 0 3.604 2.21 4.828 5.168 4.828 5.95 0 9.52-3.366 11.968-7.004l2.414 2.958c-2.244 3.23-6.834 7.616-14.45 7.616-5.168 0-8.636-2.21-8.636-7.854 0-4.828.34-13.6.34-16.864 0-1.428-.136-2.822-.374-3.944zm72.78 12.288h16.272v3.096h-16.272v-3.096zm0-5.832h16.272v3.06h-16.272v-3.06zm0-5.76h16.272v3.024h-16.272v-3.024zm15.264 25.38c-1.44 0-1.692-.144-1.692-1.224v-6.516h6.084V34.178h-22.896v20.628h4.644c-.684 4.284-2.448 6.912-9.828 8.352.684.684 1.584 2.088 1.908 2.952 8.424-1.908 10.656-5.58 11.484-11.304h5.184v6.516c0 3.384.936 4.392 4.716 4.392h5.328c3.24 0 4.176-1.332 4.572-6.732-.936-.252-2.412-.756-3.132-1.368-.144 4.356-.36 4.932-1.764 4.932h-4.608zm25.456-3.126c0-1.02 1.054-1.938 2.482-1.938 2.244 0 3.74 1.734 4.012 4.216-.748.102-1.564.136-2.414.136-2.414 0-4.08-.918-4.08-2.414zm-4.964-21.658l.102 3.502a28.99 28.99 0 012.516-.204c1.768-.102 7.65-.374 9.452-.442-1.7 1.496-5.644 4.76-7.548 6.324-2.006 1.666-6.256 5.236-8.908 7.412l2.482 2.516c4.012-4.284 7.208-6.834 12.648-6.834 4.25 0 7.378 2.312 7.378 5.508 0 2.482-1.258 4.318-3.604 5.338-.442-3.23-2.856-5.95-7.072-5.95-3.366 0-5.61 2.278-5.61 4.794 0 3.094 3.128 5.168 7.82 5.168 7.65 0 11.968-3.876 11.968-9.282 0-4.76-4.216-8.262-9.894-8.262-1.36 0-2.72.17-4.08.578 2.414-1.972 6.596-5.508 8.33-6.8a26.62 26.62 0 012.142-1.462l-1.87-2.448c-.374.136-.986.204-2.176.306-1.836.17-9.588.374-11.356.374-.816 0-1.87-.034-2.72-.136zm34.804 16.504h2.952l.828-13.248.108-4.752h-4.824l.108 4.752.828 13.248zm1.476 9.18c1.512 0 2.7-1.116 2.7-2.736s-1.188-2.736-2.7-2.736c-1.512 0-2.7 1.116-2.7 2.736s1.188 2.736 2.7 2.736z" fill="#FFF"/></g></svg>