<svg width="349" height="349" xmlns:xlink="http://www.w3.org/1999/xlink" xmlns="http://www.w3.org/2000/svg"><defs><path d="M91.783 146.883c50.69-81.121 157.545-105.79 238.666-55.1 81.122 50.69 105.791 157.545 55.101 238.666-50.691 81.122-157.545 105.791-238.667 55.101-81.121-50.691-105.79-157.545-55.1-238.667z" id="c"/><path id="a" d="M0 0h349v349H0z"/><clipPath id="b"><use xlink:href="#a" clip-rule="evenodd"/></clipPath></defs><g clip-path="url(#b)"><use xlink:href="#a" fill="none"/><use xlink:href="#c" fill="none" stroke="#294898" stroke-width="2" transform="translate(-64.489 -63.844)"/><path d="M127.801 244.53a2.097 2.097 0 01-.964-1.357c-.135-.588-.056-1.117.238-1.587.294-.471.74-.783 1.34-.937.599-.154 1.152-.072 1.658.244.543.34.868.806.974 1.401.106.595.012 1.127-.282 1.598-.293.47-.725.779-1.295.926-.57.147-1.126.051-1.669-.288zm-36.395-5.644l1.628-2.605 9.606 6.003 4.104-6.568 2.063 1.289-4.104 6.567 18.888 11.803-1.628 2.605-18.888-11.803-2.815 4.505-2.062-1.288 2.815-4.505-9.607-6.003zm16.999 41.757c-1.266 2.026-2.875 3.574-4.827 4.644-1.951 1.07-4.059 1.564-6.322 1.483-2.264-.081-4.499-.812-6.706-2.191-2.352-1.469-4.053-3.237-5.102-5.301a11.875 11.875 0 01-1.276-6.533c.198-2.291.987-4.54 2.367-6.747 1.175-1.881 2.85-3.313 5.023-4.295 2.173-.981 4.336-1.302 6.489-.963l.522.854-5.821-4.09 1.424-2.279 21.222 13.26-1.594 2.551-6.567-4.104 1.316.068c.565.706 1.008 1.586 1.33 2.642.321 1.056.503 2.214.546 3.474a13.636 13.636 0 01-.42 3.812 12.96 12.96 0 01-1.604 3.715zm-1.832-1.899c.995-1.592 1.559-3.24 1.692-4.943a9.783 9.783 0 00-.845-4.867c-.697-1.542-1.789-2.854-3.277-3.934l-3.04-1.9a9.948 9.948 0 00-4.65-.528 11.007 11.007 0 00-4.447 1.56c-1.384.846-2.528 1.993-3.432 3.44-.995 1.592-1.54 3.289-1.635 5.092a9.936 9.936 0 001.12 5.152c.842 1.633 2.167 3.014 3.976 4.145 1.664 1.04 3.424 1.586 5.278 1.638a10.78 10.78 0 005.275-1.195 9.954 9.954 0 003.985-3.66zm-44.346-1.255c-1.244.783-2.61 1.841-4.097 3.175a20.672 20.672 0 00-3.758 4.444c-1.583 2.533-2.216 4.955-1.899 7.266.317 2.311 1.434 4.066 3.352 5.264 1.447.905 2.921 1.222 4.423.953 1.501-.269 3.028-.9 4.579-1.893a77.942 77.942 0 004.742-3.301 61.07 61.07 0 013.931-2.789 18.609 18.609 0 014.236-2.069c1.465-.493 3-.654 4.603-.482 1.603.171 3.309.823 5.119 1.953 2.134 1.334 3.708 3.022 4.722 5.064 1.013 2.042 1.407 4.25 1.181 6.624-.226 2.375-1.085 4.756-2.577 7.144-1.199 1.918-2.525 3.517-3.979 4.797-1.454 1.28-2.865 2.31-4.233 3.09-1.368.781-2.484 1.379-3.347 1.795l-1.391-2.605c1.076-.434 2.26-1.04 3.551-1.818a26.039 26.039 0 003.788-2.803 16.513 16.513 0 003.107-3.643 13.677 13.677 0 001.909-5.108c.301-1.85.127-3.645-.523-5.383-.649-1.739-1.932-3.208-3.85-4.406-1.845-1.153-3.62-1.634-5.325-1.441-1.705.192-3.361.768-4.966 1.727a46.182 46.182 0 00-4.769 3.284 124.488 124.488 0 01-3.799 2.758 19.924 19.924 0 01-4.002 2.178 10.08 10.08 0 01-4.196.736c-1.422-.059-2.875-.551-4.359-1.478-1.845-1.154-3.161-2.63-3.948-4.43-.788-1.8-1.067-3.748-.839-5.844.228-2.097.969-4.187 2.221-6.272a26.441 26.441 0 014.148-5.068c1.635-1.57 3.244-2.816 4.827-3.739l1.418 2.32z" fill="#294898"/><path d="M82.225 321.6L265.79 27.832l.17.106c81.122 50.69 105.792 157.545 55.101 238.667-50.69 81.121-157.544 105.79-238.666 55.1l-.17-.107h0z" fill="#294898" fill-rule="evenodd" stroke="#294898"/><path d="M127.576 38.572h26l-16 130.2h-4l15.4-126.2h-22l.6-4zm-62 0h26l-16 130.2h-4l15.4-126.2h-22l.6-4z" fill="#294898"/><path d="M226.266 321.679c-10.944-.192-20.736-2.976-29.376-8.352s-15.312-12.528-20.016-21.456c-4.704-8.928-6.768-18.96-6.192-30.096.768-10.56 3.504-21.024 8.208-31.392 4.704-10.368 11.472-20.688 20.304-30.96 8.832-10.272 19.92-20.592 33.264-30.96 13.344-10.368 28.944-20.736 46.8-31.104l5.76 8.064c-17.088 8.832-32.064 18-44.928 27.504-12.864 9.504-23.424 19.056-31.68 28.656-8.256 9.6-14.304 18.912-18.144 27.936l-2.304-2.304c5.952-7.872 13.392-13.728 22.32-17.568 8.928-3.84 18.384-5.664 28.368-5.472 7.488.192 14.544 1.776 21.168 4.752 6.624 2.976 12.384 7.056 17.28 12.24 4.896 5.184 8.688 11.232 11.376 18.144 2.688 6.912 3.744 14.4 3.168 22.464a59.966 59.966 0 01-5.76 23.04 64.513 64.513 0 01-13.968 19.296c-5.856 5.568-12.672 9.936-20.448 13.104-7.776 3.168-16.176 4.656-25.2 4.464zm.288-8.928c9.024.192 16.896-1.248 23.616-4.32 6.72-3.072 12.384-7.104 16.992-12.096 4.608-4.992 8.112-10.464 10.512-16.416 2.4-5.952 3.792-11.808 4.176-17.568.384-9.024-1.392-17.232-5.328-24.624-3.936-7.392-9.552-13.344-16.848-17.856-7.296-4.512-15.552-6.864-24.768-7.056-9.216-.192-17.184 1.296-23.904 4.464-6.72 3.168-12.288 7.296-16.704 12.384s-7.776 10.56-10.08 16.416c-2.304 5.856-3.648 11.472-4.032 16.848-.576 9.024 1.104 17.232 5.04 24.624 3.936 7.392 9.504 13.344 16.704 17.856 7.2 4.512 15.408 6.96 24.624 7.344z" fill="#F0F8FF"/></g></svg>