<svg width="170" height="170" xmlns="http://www.w3.org/2000/svg"><path d="M1 85C1 38.608 38.608 1 85 1s84 37.608 84 84-37.608 84-84 84S1 131.392 1 85z" fill="#221B2E" fill-rule="evenodd" stroke="#E8BCBD" stroke-width="2"/><path d="M36.15 75.881V52.135h.03l11.574 16.413 11.832-16.413h.062v23.746h-4.495V64.994l-7.44 10.577h-.062l-7.161-9.902V75.88h-4.34zm52.305-18.476q1.349.465 2.65 1.178l1.706-3.441q-1.365-.899-3.085-1.55t-4.48-.651q-2.108.093-3.72.945-1.611.853-2.495 2.31-.883 1.457-.883 3.441 0 1.643.604 2.774.605 1.132 1.581 1.892.977.759 2.093 1.286 1.115.527 2.17.93.898.341 1.658.806.76.465 1.209 1.023.45.558.45 1.24 0 .992-.543 1.55t-1.364.79q-.822.233-1.627.233-.806 0-1.767-.248-.961-.248-1.907-.698-.945-.449-1.752-1.038L76.97 73.68q1.21.837 2.511 1.38 1.302.542 2.651.805 1.348.264 2.65.264 2.542 0 4.278-.915 1.736-.914 2.635-2.402.9-1.488.9-3.224 0-1.643-.466-2.775-.465-1.131-1.24-1.89-.775-.76-1.751-1.272-.977-.511-1.969-.883-1.085-.403-2.092-.899-1.008-.496-1.643-1.132-.636-.635-.636-1.441 0-1.178.837-1.767t2.294-.589q1.178 0 2.527.465zm-21.417-4.34h4.494v22.816h-4.494V53.065zm41.606.155h-5.27l9.177 23.715 6.327-13.58 5.422 13.518 8.804-23.653h-4.836l-3.861 12.668-5.129-12.668h-4.465l1.806 4.502-3.491 8.69-4.484-13.192zM96.015 73.649q0-.961.698-1.612.698-.651 1.535-.651.774 0 1.472.651t.698 1.612q0 1.023-.698 1.627-.698.605-1.472.605-.838 0-1.535-.605-.697-.604-.697-1.627zM71.596 97.117v3.131h-7.317c.567 7.884 2.214 14.122 4.185 14.122.567 0 .891-1.431 1.026-4.86.729.756 1.917 1.539 2.808 1.89-.486 5.103-1.566 6.345-4.131 6.345-4.617 0-6.642-7.992-7.29-17.496H47.458v-3.132h13.257c-.054-1.459-.081-2.97-.081-4.456h3.456a81.528 81.528 0 00.027 4.455h4.266c-.729-.917-2.079-2.024-3.159-2.834l2.133-1.756c1.215.838 2.808 2.107 3.537 2.998l-1.836 1.593h2.538zm-52.327 5.642c2.781-2.187 5.319-5.886 6.723-9.639l3.672 1.053c-1.728 4.24-4.563 8.424-7.317 10.99-.648-.676-2.241-1.89-3.078-2.404zm21.924 2.43c-2.538-2.726-5.643-6.992-7.614-10.691l3.213-1.324c1.566 3.16 4.644 6.94 7.101 9.207-.837.675-2.079 1.917-2.7 2.808zm-4.104 7.453a72.768 72.768 0 00-3.051-4.374l3.132-1.458c2.349 2.916 4.887 6.723 6.21 9.315l-3.348 1.755a18.362 18.362 0 00-1.107-2.16c-6.48.432-13.284.837-18.036 1.053l-.432-3.375 3.753-.135c1.728-3.213 3.591-7.533 4.617-10.908l3.861.89c-1.404 3.322-3.159 6.94-4.806 9.856 2.916-.135 6.075-.297 9.207-.46zm22.978-6.21h-4.32v5.94c1.647-.297 3.375-.621 5.022-.945l.243 2.862c-4.428.972-9.18 1.944-12.663 2.7l-.891-3.24c1.377-.216 3.159-.486 5.103-.81v-6.507h-4.077v-3.105h11.583v3.105zm41.145-1.151l1.638 3.276c3.198-.936 6.5-2.34 9.178-3.744v8.32c0 1.145-.078 2.782-.182 3.407h4.108c-.182-.65-.234-2.263-.234-3.407V102.63c2.522-1.664 5.018-3.692 6.994-5.642l-2.808-2.678c-1.69 2.054-4.654 4.654-7.332 6.318-2.886 1.768-6.708 3.458-11.362 4.654zm-7.764-1.378v-.858h1.924c1.378 0 2.288.026 2.86.078v-3.458c-.702.13-1.482.182-2.86.182h-1.924v-2.73c0-1.04.104-1.898.182-2.417h-3.718c.078.52.156 1.377.156 2.417v2.73h-6.162v-2.573c0-1.014.078-1.846.156-2.34H80.37c.078.78.156 1.586.156 2.34v2.574h-2.21c-1.3 0-2.366-.156-2.808-.234v3.536a32.119 32.119 0 012.808-.104h2.21v3.535c0 1.17-.078 2.21-.156 2.73h3.64c-.026-.52-.104-1.586-.104-2.73v-3.535h6.162v.987c0 6.397-2.21 8.633-7.228 10.375l2.782 2.626c6.266-2.757 7.826-6.683 7.826-13.13zm39.656 12.636c.156-1.04.26-2.6.26-3.64V97.95c0-.91-.078-2.21-.26-3.12h4.056c-.104.91-.234 2.054-.234 3.12v3.849c3.484 1.014 8.476 2.86 10.868 4.03l-1.482 3.587c-2.678-1.404-6.578-2.912-9.386-3.874v7.359c0 .753.13 2.573.234 3.64h-4.056z" fill="#FFF"/></svg>