<svg width="170" height="170" xmlns="http://www.w3.org/2000/svg"><path d="M1 85C1 38.608 38.608 1 85 1s84 37.608 84 84-37.608 84-84 84S1 131.392 1 85z" fill="#E54F6D" fill-rule="evenodd" stroke="#E8BCBD" stroke-width="2"/><path d="M31.866 68.782l-8.401-15.717h5.549l5.89 11.842-1.333.093 5.797-11.935h5.549l-8.556 15.717v7.099h-4.495v-7.099zm89.668 7.471q-1.705 0-2.868-.573-.94-.465-1.689-1.163v1.364h-4.34V51.422h4.309v11.842q.806-.682 2.139-1.147 1.333-.465 3.038-.465 1.767 0 3.224.837 1.457.837 2.341 2.434.883 1.596.883 3.89t-.976 3.968q-.977 1.674-2.589 2.573t-3.472.899zM83.19 56.382h4.34v5.89h3.286v3.379H87.53v10.23h-4.34v-10.23h-2.108v-3.379h2.108v-5.89zm-37.553 8.835q-.977 1.643-.977 3.72 0 2.294.992 3.937.992 1.643 2.743 2.511 1.752.868 3.984.868 2.387 0 4.092-.961 1.705-.961 2.62-2.62.914-1.658.914-3.735t-.914-3.72q-.915-1.643-2.62-2.589-1.705-.945-4.03-.945-2.294 0-4.061.945-1.767.946-2.743 2.589zm89.009 10.106q1.72.93 4.2.93 1.116 0 2.372-.372 1.255-.372 2.34-.992l-1.922-3.224q-.651.403-1.317.651-.667.248-1.38.248-.992 0-1.798-.434-.515-.278-.891-.726l9.912-3.149q-.558-3.193-2.433-4.882-1.876-1.69-4.79-1.69-2.17 0-3.937.977-1.767.976-2.821 2.619-1.054 1.643-1.054 3.689 0 2.139.899 3.782.899 1.643 2.62 2.573zm.765-6.329q-.006-.134-.006-.274 0-1.116.388-1.938.387-.821 1.116-1.27.728-.45 1.689-.45 1.271 0 1.907.604.599.571.854 1.321l-5.948 2.007zm-70.494 6.407q1.24 1.131 3.069 1.131 1.209 0 2.185-.356.977-.357 1.69-1.008.698-.638 1.159-1.454l.298 2.167h3.937V62.334h-4.34v5.518q0 1.426-.388 2.558-.387 1.131-1.084 1.782-.698.651-1.659.651-.961 0-1.364-.542-.403-.543-.465-1.442v-8.525h-4.34v10.137q.062 1.798 1.302 2.93zm30.718 0q1.24 1.131 3.069 1.131 1.209 0 2.186-.356.976-.357 1.689-1.008.699-.638 1.159-1.454l.298 2.167h3.937V62.334h-4.34v5.518q0 1.426-.387 2.558-.388 1.131-1.085 1.782-.698.651-1.659.651-.961 0-1.364-.542-.403-.543-.465-1.442v-8.525h-4.34v10.137q.062 1.798 1.302 2.93zm24.938-2.806q.961 0 1.783-.496.821-.496 1.317-1.364.496-.868.496-1.953t-.496-1.922q-.496-.837-1.317-1.317-.822-.481-1.783-.481-.837 0-1.566.264-.728.263-1.24.744-.511.48-.79 1.162v3.317q.372.682.883 1.131.512.45 1.194.683.682.232 1.519.232zm-71.108-1.72q-.434-.853-.434-1.907 0-1.085.434-1.922t1.178-1.333q.744-.496 1.674-.496 1.023 0 1.767.496t1.147 1.333q.403.837.403 1.922 0 1.054-.403 1.906-.403.853-1.147 1.349t-1.767.496q-.93 0-1.674-.496-.744-.496-1.178-1.349zM34.38 94.567h3.393v17.864h10.382v3.248H34.38V94.567zm17.458 4.437q0-.754.595-1.247.595-.493 1.29-.493.697 0 1.248.493.55.493.55 1.247 0 .754-.55 1.233-.551.478-1.247.478-.696 0-1.291-.493t-.595-1.218zm.145 4.408h3.248v12.267h-3.248v-12.267zm5.917 0l7.047 12.586h.145l6.727-12.586h-3.625l-3.068 7.004-3.37-7.004H57.9zm22.446 12.586q-2.176 0-3.713-.841-1.536-.841-2.348-2.32-.812-1.479-.812-3.393 0-1.827.928-3.32.927-1.494 2.508-2.378 1.58-.885 3.494-.885 2.523 0 4.162 1.465 1.639 1.464 2.19 4.132l-9.89 3.335-.753-1.827 7.743-2.755-.697.377q-.29-.87-1.014-1.523-.725-.652-2.001-.652-1.015 0-1.798.493-.783.493-1.233 1.348-.45.856-.45 2.016 0 1.218.494 2.102.493.885 1.334 1.363.84.479 1.914.479.754 0 1.435-.261.682-.261 1.32-.696l1.479 2.407q-.957.609-2.103.971-1.145.363-2.19.363zm33.54-12.094c2.376-2.25 4.675-5.8 6.026-9.35l2.75.9c-.65 1.6-1.425 3.25-2.326 4.825v17.5h-2.825v-13.2a24.351 24.351 0 01-2.075 2.35c-.275-.7-1.05-2.325-1.55-3.025zm-21.2-5.875h-3.375l.025-2.625h11.35v2.625h-3.075v2h2.626v17.35h-2.375v-1.25h-5.8v1.575h-2.275v-17.675h2.9v-2zm31.426-2.55h11.45v2.325h-11.45v-2.325zm-19.45 18.075c0 1.05.15 1.175 1.124 1.175h2.8c.95 0 1.1-.6 1.25-3.9.65.475 1.9 1 2.675 1.175-.3 4.225-1.1 5.5-3.674 5.5h-3.475c-2.775 0-3.65-.85-3.65-3.925v-10.375h6.974v-4.7h-7.075v-2.875h9.95v11.95h-2.875v-1.55h-4.025v7.525zm-10.05-13.525h1.025v-2h-1.025v2zm27.125 1.4v-2.4h16v2.4h-16zm-28.575 3.025v-1.95h-1.1v5.525c.975-1.075 1.1-2.45 1.1-3.575zm4.7 3.9h-1.075c-1.076 0-1.4-.325-1.4-1.8v-4.05h-.85v1.975c0 1.4-.276 3.25-1.425 4.55-.225-.25-.725-.725-1.05-.925v1.975h5.8v-1.725zm-.125-1.525a.545.545 0 00.125.1v-4.425h-1.1v4.05c0 .325.025.35.2.35h.45c.224 0 .274 0 .325-.075zm25.975-4.175h12.3v2.3h-12.3v-2.3zm12.2 5.875h-12.2v-2.325h12.2v2.325zm-9.75 9.3h-2.85v-8.075h13.05v8h-3v-.925h-7.2v1zm7.2-3.325v-2.45h-7.2v2.45h7.2zm-41.3-2.375v1.7h5.8v-1.7h-5.8z" fill="#FFF"/></svg>