<svg width="170" height="170" xmlns="http://www.w3.org/2000/svg"><path d="M1 85C1 38.608 38.608 1 85 1s84 37.608 84 84-37.608 84-84 84S1 131.392 1 85z" fill="#FFF" fill-rule="evenodd" stroke="#E8BCBD" stroke-width="2"/><path d="M137.484 53.226l.644-.196 2.156 1.456c-1.176 2.24-2.94 4.704-4.732 6.524 1.54 1.316 3.388 2.324 5.572 2.996-.7.644-1.624 1.932-2.072 2.8-2.38-.868-4.368-2.072-5.992-3.64v1.316h-10.556V63.25c-1.876 1.708-4.116 2.968-6.524 3.892-.392-.784-1.12-1.988-1.764-2.604a17.245 17.245 0 005.152-2.632 30.379 30.379 0 00-2.408-1.988c-.28.224-.588.448-.896.672-.448-.7-1.4-1.708-2.044-2.156 3.052-1.932 5.096-4.536 6.188-6.86l3.108.532c-.196.392-.392.756-.616 1.148h2.828l.56-.112 1.624.672c-.14-.448-.252-.924-.392-1.4l2.856-.588a22.866 22.866 0 001.288 3.612v-2.212h6.02zM65.84 62.578h-2.8v.728c.756.644 2.912 2.828 3.416 3.388l-1.848 2.548c-.336-.644-.952-1.624-1.568-2.576v11.032h-3.164v-9.604c-.756 2.016-1.624 3.892-2.548 5.208-.28-.952-1.008-2.324-1.512-3.164 1.372-1.82 2.716-4.872 3.528-7.56h-3.08v-3.024h3.612v-3.388c-1.008.196-2.016.336-2.968.476-.14-.672-.532-1.792-.896-2.408 2.884-.504 6.048-1.316 7.952-2.212l2.044 2.044-.084-.14c4.592-.42 9.772-1.204 12.88-2.24l2.324 2.492c-4.032 1.204-9.576 1.932-14.364 2.296-.056-.56-.336-1.4-.616-2.044q-1.428.588-3.108 1.008v4.116h2.8v3.024zm-24.216 5.964h11.228v3.164H41.624v5.964H38.18v-5.964H27.26v-3.164h10.92V65.35h-8.148V52.694H49.94V65.35h-8.316v3.192zm45.128-15.148V77.39h3.332v-1.708h16.548v1.708h3.472V53.394H86.752zm41.184 1.064c-.84 2.8-2.1 5.152-3.752 7.056h7.392c-1.568-1.96-2.744-4.312-3.64-7.056zm-4.508 2.968c.364-.616.672-1.288.952-1.96h-3.108l-.308.42c.84.476 1.764 1.036 2.464 1.54zm-47.452 5.152c.896-1.876 2.016-4.844 2.576-7.056l3.248.896c-.896 2.492-2.072 5.18-2.996 6.916h2.576v14.28h-3.108v-1.092h-3.976v1.232h-2.968v-14.42h7.14l-2.492-.756zm-29.48-6.944H33.308v2.044h13.188v-2.044zm87.04 3.248c.784-.896 1.54-1.96 2.156-2.968h-4.004a17.649 17.649 0 001.848 2.968zM74.044 56.11c.728 1.512 1.344 3.528 1.568 4.872l-2.912.84c-.112-1.344-.728-3.416-1.4-4.956l2.744-.756zm22.48.504v6.16h-6.44v-6.16h6.44zm10.108 6.16h-6.72v-6.16h6.72v6.16zm-38.608-.336c-.196-1.344-.924-3.332-1.736-4.816l2.632-.812c.896 1.4 1.68 3.332 1.932 4.676l-2.828.952zm54.144-3.22a38.461 38.461 0 00-2.52-1.736c-.336.336-.644.672-1.008 1.008a32.083 32.083 0 012.492 1.876c.364-.364.7-.728 1.036-1.148zm-75.672 1.176H33.308v2.016h13.188v-2.016zm23.236 17.248H66.68v-14.7h3.052v14.7zm20.352-11.536h6.44v6.216h-6.44v-6.216zm9.828 6.216v-6.216h6.72v6.216h-6.72zm-21.64-3.836v-2.324h-3.976v2.324h3.976zm60.052-1.764v2.996h-8.96v4.76c0 1.54-.336 2.324-1.512 2.772-1.148.448-2.688.476-4.732.448-.168-.896-.672-2.128-1.12-2.94 1.372.056 2.996.056 3.416.028.476 0 .588-.084.588-.42v-4.648h-8.96v-2.996h21.28zm-23.66 8.428c1.988-1.12 3.892-2.912 4.928-4.76l3.332.924c-1.316 2.38-3.5 4.648-5.516 6.02-.616-.616-1.96-1.652-2.744-2.184zm25.368.476l-2.94 1.82c-1.036-1.512-3.416-3.836-5.348-5.46l2.772-1.596c1.904 1.484 4.34 3.696 5.516 5.236zm-65.736-4.424v2.492h3.976v-2.492h-3.976zm-2.7 25.915v3.131h-7.317c.567 7.884 2.214 14.122 4.185 14.122.567 0 .891-1.431 1.026-4.86.729.756 1.917 1.539 2.808 1.89-.486 5.103-1.566 6.345-4.131 6.345-4.617 0-6.642-7.992-7.29-17.496H47.458v-3.132h13.257c-.054-1.459-.081-2.97-.081-4.456h3.456a81.528 81.528 0 00.027 4.455h4.266c-.729-.917-2.079-2.024-3.159-2.834l2.133-1.756c1.215.838 2.808 2.107 3.537 2.998l-1.836 1.593h2.538zm-52.327 5.642c2.781-2.187 5.319-5.886 6.723-9.639l3.672 1.053c-1.728 4.24-4.563 8.424-7.317 10.99-.648-.676-2.241-1.89-3.078-2.404zm21.924 2.43c-2.538-2.726-5.643-6.992-7.614-10.691l3.213-1.324c1.566 3.16 4.644 6.94 7.101 9.207-.837.675-2.079 1.917-2.7 2.808zm-4.104 7.453a72.768 72.768 0 00-3.051-4.374l3.132-1.458c2.349 2.916 4.887 6.723 6.21 9.315l-3.348 1.755a18.362 18.362 0 00-1.107-2.16c-6.48.432-13.284.837-18.036 1.053l-.432-3.375 3.753-.135c1.728-3.213 3.591-7.533 4.617-10.908l3.861.89c-1.404 3.322-3.159 6.94-4.806 9.856 2.916-.135 6.075-.297 9.207-.46zm22.978-6.21h-4.32v5.94c1.647-.297 3.375-.621 5.022-.945l.243 2.862c-4.428.972-9.18 1.944-12.663 2.7l-.891-3.24c1.377-.216 3.159-.486 5.103-.81v-6.507h-4.077v-3.105h11.583v3.105zm41.145-1.151l1.638 3.276c3.198-.936 6.5-2.34 9.178-3.744v8.32c0 1.145-.078 2.782-.182 3.407h4.108c-.182-.65-.234-2.263-.234-3.407V102.63c2.522-1.664 5.018-3.692 6.994-5.642l-2.808-2.678c-1.69 2.054-4.654 4.654-7.332 6.318-2.886 1.768-6.708 3.458-11.362 4.654zm-7.764-1.378v-.858h1.924c1.378 0 2.288.026 2.86.078v-3.458c-.702.13-1.482.182-2.86.182h-1.924v-2.73c0-1.04.104-1.898.182-2.417h-3.718c.078.52.156 1.377.156 2.417v2.73h-6.162v-2.573c0-1.014.078-1.846.156-2.34H80.37c.078.78.156 1.586.156 2.34v2.574h-2.21c-1.3 0-2.366-.156-2.808-.234v3.536a32.119 32.119 0 012.808-.104h2.21v3.535c0 1.17-.078 2.21-.156 2.73h3.64c-.026-.52-.104-1.586-.104-2.73v-3.535h6.162v.987c0 6.397-2.21 8.633-7.228 10.375l2.782 2.626c6.266-2.757 7.826-6.683 7.826-13.13zm39.656 12.636c.156-1.04.26-2.6.26-3.64V97.95c0-.91-.078-2.21-.26-3.12h4.056c-.104.91-.234 2.054-.234 3.12v3.849c3.484 1.014 8.476 2.86 10.868 4.03l-1.482 3.587c-2.678-1.404-6.578-2.912-9.386-3.874v7.359c0 .753.13 2.573.234 3.64h-4.056z" fill="#294898"/></svg>