<svg width="495" height="52" xmlns:xlink="http://www.w3.org/1999/xlink" xmlns="http://www.w3.org/2000/svg"><defs><clipPath id="b"><use xlink:href="#a" clip-rule="evenodd"/></clipPath><path id="a" d="M0 0h495v52H0z"/></defs><g clip-path="url(#b)"><use xlink:href="#a" fill="none"/><path d="M78.474 25.9l-22 15v-30l22 15z" fill="#CA2727" fill-rule="evenodd"/><path d="M218.572 39.804q-2.052 0-3.582-.846-1.226-.678-2.07-1.644v2.13h-3.708V11.472h3.672v14.739q.86-1.088 2.448-1.779 1.656-.72 3.708-.72 2.016 0 3.69.972t2.664 2.754q.99 1.782.99 4.23 0 2.52-1.08 4.356-1.08 1.836-2.862 2.808-1.782.972-3.87.972zm-97.388-8.964L111.5 13.308h4.752l6.962 13.193 6.862-13.193h4.716l-9.756 17.532v8.604h-3.852V30.84zm50.052-17.532h17.424v3.708h-6.876v22.428h-3.852V17.016h-6.696v-3.708zm86.788 0h3.852v22.428h13.068v3.708h-16.92V13.308zM278.2 17.52q-.684.576-.684 1.44t.684 1.422q.684.558 1.476.558.828 0 1.476-.558t.648-1.422q0-.864-.648-1.44t-1.476-.576q-.792 0-1.476.576zM135.276 31.74q0-2.268 1.08-4.086 1.08-1.818 2.988-2.862t4.356-1.044q2.484 0 4.356 1.044 1.872 1.044 2.898 2.862t1.026 4.086q0 2.268-1.026 4.104-1.026 1.836-2.898 2.898t-4.392 1.062q-2.412 0-4.302-.972-1.89-.972-2.988-2.79t-1.098-4.302zm96.092 7.038q1.872 1.026 4.5 1.026 1.332 0 2.718-.45t2.574-1.206l-1.692-2.736q-.792.54-1.674.9-.882.36-1.854.36-1.368 0-2.466-.648-.966-.57-1.57-1.517l11.74-4.063q-.684-3.168-2.682-4.932-1.998-1.764-5.022-1.764-2.34 0-4.266 1.08-1.926 1.08-3.06 2.898-1.134 1.818-1.134 4.05 0 2.34 1.008 4.158 1.008 1.818 2.88 2.844zm72.388 0q1.872 1.026 4.5 1.026 1.332 0 2.718-.45t2.574-1.206l-1.692-2.736q-.792.54-1.674.9-.882.36-1.854.36-1.368 0-2.466-.648-.966-.57-1.57-1.517l11.74-4.063q-.684-3.168-2.682-4.932-1.998-1.764-5.022-1.764-2.34 0-4.266 1.08-1.926 1.08-3.06 2.898-1.134 1.818-1.134 4.05 0 2.34 1.008 4.158 1.008 1.818 2.88 2.844zm-.216-6.479q-.036-.34-.036-.703 0-1.476.594-2.574.594-1.098 1.62-1.728 1.026-.63 2.322-.63 1.62 0 2.556.846.863.78 1.298 1.79l-8.354 3zm-147.764 6.497q1.332 1.26 3.42 1.26 1.368 0 2.556-.45t2.052-1.26q.79-.741 1.25-1.648l.226 2.746h3.348V24.36h-3.708v6.84q0 1.656-.558 2.934-.558 1.278-1.512 2.016t-2.178.738q-1.332-.036-1.926-.774-.594-.738-.666-1.89V24.36h-3.708v11.196q.072 1.98 1.404 3.24zm36.896 0q1.332 1.26 3.42 1.26 1.368 0 2.556-.45t2.052-1.26q.79-.741 1.25-1.648l.226 2.746h3.348V24.36h-3.708v6.84q0 1.656-.558 2.934-.558 1.278-1.512 2.016t-2.178.738q-1.332-.036-1.926-.774-.594-.738-.666-1.89V24.36h-3.708v11.196q.072 1.98 1.404 3.24zM281.44 24.36h-3.708v15.084h3.708V24.36zm9.952 15.48l-8.532-15.48h4.392l4.337 9.124 3.979-9.124h4.14l-8.172 15.48h-.144zm-73.612-3.168q1.368 0 2.466-.648t1.746-1.8q.648-1.152.648-2.592 0-1.404-.648-2.52t-1.746-1.782q-1.098-.666-2.466-.666-1.188 0-2.196.432-1.008.432-1.692 1.188-.684.756-.972 1.764v3.204q.288 1.008.972 1.782.684.774 1.674 1.206.99.432 2.214.432zm13.372-4.373q-.036-.34-.036-.703 0-1.476.594-2.574.594-1.098 1.62-1.728 1.026-.63 2.322-.63 1.62 0 2.556.846.863.78 1.298 1.79l-8.354 3zm-92.132-.523q0 1.404.612 2.538t1.656 1.8q1.044.666 2.34.666 1.332 0 2.376-.666 1.044-.666 1.638-1.8.594-1.134.594-2.538t-.594-2.52q-.594-1.116-1.638-1.8-1.044-.684-2.376-.684-1.332 0-2.376.684-1.044.684-1.638 1.818-.594 1.134-.594 2.502z" fill="#F0F8FF"/><path d="M353.432 19.277h-1.45v-2.9h1.45v2.9zm2.87 7.801a.493.493 0 00-.144-.116c-.03.058-.116.087-.406.087h-.812c-.29 0-.32-.058-.32-.435V21.54h1.683v5.54zm-7.452 8.265v-2.552h7.453v2.552h-7.453zm0-13.804h1.682v2.262c0 1.45-.232 3.22-1.682 4.582.319.203.84.667 1.073.957 1.624-1.566 2-3.799 2-5.51v-2.29h1.335v5.103c0 1.508.348 1.856 1.537 1.856h1.508v2.35h-7.453v-9.31zm-2.755-5.162h4.03v2.9h-3.392v20.126h2.117V37.49h7.453v1.508h2.175v-19.72h-3.161v-2.9h3.77V14h-12.992v2.378zm18.444 20.3c-1.218 0-1.45-.203-1.45-1.334v-9.686h5.713v1.914h2.61v-13.34h-11.078v2.581h8.468v6.293h-8.381v12.238c0 3.045.899 3.828 3.77 3.828h4.495c2.784 0 3.509-1.363 3.799-6.119-.725-.174-1.827-.638-2.436-1.13-.174 4.03-.377 4.755-1.566 4.755h-3.944zm33.691-22.533h-13.224v2.175h13.224v-2.175zm-17.4-1.189c-1.624 4.263-4.35 8.44-7.192 11.107.435.667 1.218 2.117 1.479 2.726a33.922 33.922 0 002.842-3.364v16.008h2.552V19.538c1.073-1.856 2.059-3.828 2.842-5.77l-2.523-.813zm15.544 19.488v3.625h-9.541v-3.625h9.54zm-12.122 7.047h2.58v-1.247h9.542v1.16h2.697v-9.077h-14.82v9.164zm.348-11.049h14.065v-2.146H384.6v2.146zm14.152-6.206H384.6v2.175h14.152v-2.175zm-16.472-4.06v2.233h18.589v-2.233h-18.59zm63.134-1.44h2.538a29.375 29.375 0 00-.081 2.35v4.373c0 6.48-.891 8.613-2.835 10.935-1.755 2.106-4.455 3.267-6.426 3.942l-1.755-1.863c2.484-.62 4.779-1.7 6.453-3.59 1.917-2.242 2.24-4.429 2.24-9.532v-4.266c0-.918-.053-1.674-.134-2.349zm-12.447.216h2.457a20.537 20.537 0 00-.108 1.944v9.018c0 .675.054 1.566.108 2.052h-2.484c.054-.405.135-1.269.135-2.079v-8.99c0-.487-.054-1.432-.108-1.945zm-8.153.756l1.323 1.27c-.19.27-.54.674-.73.971-1.08 1.836-3.644 5.32-6.722 7.452l-1.782-1.43c2.484-1.432 5.022-4.375 5.913-6.049h-15.39q-1.499 0-3.078.162v-2.457c.945.135 2.079.243 3.078.243h15.498c.513 0 1.485-.08 1.89-.162zm-11.88 4.833h2.43c0 7.317-.648 12.258-7.533 15.687l-1.998-1.62a9.3 9.3 0 002.43-1.215c4.185-2.565 4.779-6.399 4.779-10.908 0-.648-.027-1.242-.108-1.944z" fill="#E54F6D"/></g></svg>