<svg width="492" height="178" xmlns:xlink="http://www.w3.org/1999/xlink" xmlns="http://www.w3.org/2000/svg"><defs><clipPath id="b"><use xlink:href="#a" clip-rule="evenodd"/></clipPath><path id="a" d="M0 0h492v178H0z"/></defs><g clip-path="url(#b)"><use xlink:href="#a" fill="none"/><path d="M26.288 138.544V28.24h.144l53.763 76.24 54.957-76.24h.288v110.304h-20.88V87.97L80 137.105h-.288L46.448 91.106v47.438h-20.16zM267.32 52.72q6.264 2.16 12.312 5.472l7.92-15.984q-6.336-4.176-14.328-7.2-7.992-3.024-20.808-3.024-9.792.432-17.28 4.392-7.488 3.96-11.592 10.728t-4.104 15.984q0 7.632 2.808 12.888t7.344 8.784q4.536 3.528 9.72 5.976 5.184 2.448 10.08 4.32 4.176 1.584 7.704 3.744 3.528 2.16 5.616 4.752 2.088 2.592 2.088 5.76 0 4.608-2.52 7.2-2.52 2.592-6.336 3.672-3.816 1.08-7.56 1.08-3.744 0-8.208-1.152t-8.856-3.24q-4.392-2.088-8.136-4.824l-9.216 16.272q5.616 3.888 11.664 6.408 6.048 2.52 12.312 3.744 6.264 1.224 12.312 1.224 11.808 0 19.872-4.248t12.24-11.16q4.176-6.912 4.176-14.976 0-7.632-2.16-12.888t-5.76-8.784q-3.6-3.528-8.136-5.904t-9.144-4.104q-5.04-1.872-9.72-4.176-4.68-2.304-7.632-5.256-2.952-2.952-2.952-6.696 0-5.472 3.888-8.208 3.888-2.736 10.656-2.736 5.472 0 11.736 2.16zM168.8 32.56h20.88v105.984H168.8V32.56zm190.368.72h-24.48l42.624 110.16 29.392-63.083 25.184 62.795L472.784 33.28H450.32l-17.932 58.845L408.56 33.28h-20.736l8.387 20.914-16.218 40.368-20.825-61.282zm-57.696 94.896q0-4.464 3.24-7.488t7.128-3.024q3.6 0 6.84 3.024 3.24 3.024 3.24 7.488 0 4.752-3.24 7.56t-6.84 2.808q-3.888 0-7.128-2.808t-3.24-7.56z" fill="#294898"/></g></svg>