<svg width="2000" height="1226" xmlns:xlink="http://www.w3.org/1999/xlink" xmlns="http://www.w3.org/2000/svg"><defs><clipPath id="b"><use xlink:href="#a" clip-rule="evenodd"/></clipPath><path id="a" d="M0 0h2000v1226H0z"/></defs><g clip-path="url(#b)"><use xlink:href="#a" fill="none"/><g fill-rule="evenodd"><path d="M1998.972-669H-1.031v435.734c224.066-138.895 508.682-258.538 827.952-338.14 442.21-110.256 861.8-121.48 1172.05-50.131V-669zm0 1148.121c-223.78 138.41-507.72 257.61-826.1 337-443.1 110.47-863.476 121.52-1173.903 49.7v465.18h2000.003v-851.88z" fill="#221B2E"/><path d="M-187.737-101.238c-47.656 126.73-57.505 257.502-21.6 382.719 121.784 424.71 723.828 624.68 1344.708 446.65 620.87-178.03 1025.47-666.654 903.68-1091.366a557.099 557.099 0 00-40.05-101.148v-156.518c272.89 62.749 461.19 189.377 505.9 368.682 95.53 383.154-500.81 861.75-1331.96 1068.98-831.148 207.23-1582.37 64.61-1677.901-318.54-47.683-191.245 77.004-406.27 317.223-599.46zm186.74-295.71v-272.04h351.611C211.797-592.63 92.651-499.603-.996-396.948zm1828.399-272.04h171.6v48.087c-46.11-10.604-94.65-19.384-145.31-26.285a722.55 722.55 0 00-26.29-21.802z" fill="#294898"/></g></g></svg>