<svg width="271" height="168" xmlns="http://www.w3.org/2000/svg"><path d="M28.742 43.238q2.626 1.17 5.746 1.17 3.172 0 5.772-1.144t4.55-3.354q1.95-2.21 3.016-5.46t1.066-7.462q0-4.108-1.066-7.358t-2.99-5.486q-1.924-2.236-4.55-3.38Q37.66 9.62 34.488 9.62q-3.224 0-5.876 1.014t-4.55 3.172q-1.898 2.158-2.938 5.434-1.04 3.276-1.04 7.748 0 4.108 1.092 7.358t3.016 5.486q1.924 2.236 4.55 3.406zm43.704 0q2.626 1.17 5.746 1.17 3.172 0 5.772-1.144t4.55-3.354q1.95-2.21 3.016-5.46t1.066-7.462q0-4.108-1.066-7.358t-2.99-5.486q-1.924-2.236-4.55-3.38-2.626-1.144-5.798-1.144-3.224 0-5.876 1.014t-4.55 3.172q-1.898 2.158-2.938 5.434-1.04 3.276-1.04 7.748 0 4.108 1.092 7.358t3.016 5.486q1.924 2.236 4.55 3.406zM11.96 9.984H2.704v5.356h3.692v28.912h5.564V9.984zm27.364 27.534q-1.924 1.534-4.888 1.534-2.86 0-4.784-1.534t-2.86-4.29q-.936-2.756-.936-6.24 0-3.588.936-6.292.936-2.704 2.86-4.238 1.924-1.534 4.784-1.482 2.964-.052 4.888 1.482t2.86 4.212q.936 2.678.936 6.162 0 3.588-.936 6.37t-2.86 4.316zm43.704 0q-1.924 1.534-4.888 1.534-2.86 0-4.784-1.534t-2.86-4.29q-.936-2.756-.936-6.24 0-3.588.936-6.292.936-2.704 2.86-4.238 1.924-1.534 4.784-1.482 2.964-.052 4.888 1.482t2.86 4.212q.936 2.678.936 6.162 0 3.588-.936 6.37t-2.86 4.316zM53.272 27.04q0-1.3.91-2.158.91-.858 2.002-.858 1.04 0 1.976.858.936.858.936 2.106 0 1.352-.936 2.158-.936.806-1.976.806-1.092 0-2.002-.78-.91-.78-.91-2.132zm0 14.248q0-1.248.91-2.106.91-.858 2.002-.858 1.04 0 1.976.858.936.858.936 2.106 0 1.352-.936 2.158c-.624.537-1.283.806-1.976.806-.728 0-1.395-.269-2.002-.806q-.91-.806-.91-2.158zm52.622 1.95q2.626 1.17 5.746 1.17 3.172 0 5.772-1.144t4.55-3.354q1.95-2.21 3.016-5.46t1.066-7.462q0-4.108-1.066-7.358t-2.99-5.486q-1.924-2.236-4.55-3.38-2.626-1.144-5.798-1.144-3.224 0-5.876 1.014t-4.55 3.172q-1.898 2.158-2.938 5.434-1.04 3.276-1.04 7.748 0 4.108 1.092 7.358t3.016 5.486q1.924 2.236 4.55 3.406zm10.582-5.72q-1.924 1.534-4.888 1.534-2.86 0-4.784-1.534t-2.86-4.29q-.936-2.756-.936-6.24 0-3.588.936-6.292.936-2.704 2.86-4.238 1.924-1.534 4.784-1.482 2.964-.052 4.888 1.482t2.86 4.212q.936 2.678.936 6.162 0 3.588-.936 6.37t-2.86 4.316zm25.868-6.942h-9.672v4.68h9.672v-4.68zM219 44.408q-3.12 0-5.746-1.17-2.626-1.17-4.55-3.406t-3.016-5.486q-1.092-3.25-1.092-7.358 0-4.472 1.04-7.748t2.938-5.434q1.898-2.158 4.55-3.172Q215.776 9.62 219 9.62q3.172 0 5.798 1.144t4.55 3.38q1.924 2.236 2.99 5.486 1.066 3.25 1.066 7.358 0 4.212-1.066 7.462t-3.016 5.46q-1.95 2.21-4.55 3.354-2.6 1.144-5.772 1.144zm27.702-1.17q2.626 1.17 5.746 1.17 3.172 0 5.772-1.144t4.55-3.354q1.95-2.21 3.016-5.46t1.066-7.462q0-4.108-1.066-7.358t-2.99-5.486q-1.924-2.236-4.55-3.38-2.626-1.144-5.798-1.144-3.224 0-5.876 1.014t-4.55 3.172q-1.898 2.158-2.938 5.434-1.04 3.276-1.04 7.748 0 4.108 1.092 7.358t3.016 5.486q1.924 2.236 4.55 3.406zM150.376 9.984h9.256v34.268h-5.564V15.34h-3.692V9.984zm39.844 0L176.7 44.252h-6.24l11.717-28.964h-14.525V9.984h22.568zm28.728 29.068q2.964 0 4.888-1.534t2.86-4.316q.936-2.782.936-6.37 0-3.484-.936-6.162t-2.86-4.212q-1.924-1.534-4.888-1.482-2.86-.052-4.784 1.482t-2.86 4.238q-.936 2.704-.936 6.292 0 3.484.936 6.24.936 2.756 2.86 4.29 1.924 1.534 4.784 1.534zm38.336-1.534q-1.924 1.534-4.888 1.534-2.86 0-4.784-1.534t-2.86-4.29q-.936-2.756-.936-6.24 0-3.588.936-6.292.936-2.704 2.86-4.238 1.924-1.534 4.784-1.482 2.964-.052 4.888 1.482t2.86 4.212q.936 2.678.936 6.162 0 3.588-.936 6.37t-2.86 4.316zM194.99 24.882q-.91.858-.91 2.158 0 1.352.91 2.132t2.002.78q1.04 0 1.976-.806.936-.806.936-2.158 0-1.248-.936-2.106-.936-.858-1.976-.858-1.092 0-2.002.858zm0 14.3q-.91.858-.91 2.106 0 1.352.91 2.158c.607.537 1.274.806 2.002.806.693 0 1.352-.269 1.976-.806q.936-.806.936-2.158 0-1.248-.936-2.106-.936-.858-1.976-.858-1.092 0-2.002.858zm66.074 109.006l-2.048 1.376c.576.416 1.184.896 1.792 1.408l-8.224.16c.576-.928 1.216-1.952 1.792-2.944h6.688zm5.024-5.504v2.272h-20.48v-2.272h20.48zm-8.352 20.096v-2.464h9.856v-3.264h-9.856v-2.784l6.496-.192c.608.64 1.152 1.248 1.568 1.792l2.976-2.08c-1.344-1.632-4.032-3.904-6.336-5.6h4v-2.304h3.52v-6.656h-12.224v-2.048h-3.904v2.048h-11.936v6.656h3.52v2.304h4.608a51.416 51.416 0 01-1.408 3.008l-4.544.064.16 3.392c2.656-.064 6.016-.16 9.6-.256v2.656h-9.184v3.264h9.184v2.464H241.8v3.36h28.352v-3.36h-12.416zM232 146.492c-.352 2.784-.896 5.28-1.696 7.456-.864-2.304-1.504-4.8-1.952-7.456H232zm-12.224 3.776h-1.856c.48-.512.928-1.056 1.376-1.6h3.808a16.01 16.01 0 01-1.536 2.304l-1.12-.896-.672.192zm-3.456-7.008h2.496c-.448.736-.928 1.44-1.44 2.144h-1.056v-2.144zm21.504 3.232v-3.52h-8.512c.448-1.696.8-3.456 1.12-5.248l-3.84-.576c-.576 3.776-1.536 7.456-2.944 10.432v-2.176h-2.016c1.28-2.016 2.4-4.16 3.328-6.496l-3.52-.992c-.576 1.504-1.248 2.976-2.016 4.32v-2.176h-3.104v-2.912h-3.552v2.912h-3.616v3.2h3.616v2.144h-4.672v3.264h6.432c-.576.544-1.152 1.088-1.76 1.6h-2.048v1.536a28.796 28.796 0 01-3.36 1.952c.768.704 2.048 2.176 2.56 2.912a32.789 32.789 0 004.96-3.456h2.272a25.67 25.67 0 01-1.664 1.6h-1.248v2.496c-2.4.192-4.608.352-6.4.48l.384 3.392c1.76-.16 3.808-.352 6.016-.544v2.72c0 .352-.128.448-.544.48-.384 0-1.792 0-3.008-.032.448.896.928 2.24 1.088 3.232 1.984 0 3.456-.032 4.608-.544 1.152-.544 1.44-1.408 1.44-3.04v-3.136c1.92-.16 3.872-.32 5.792-.512v-3.264c-1.92.16-3.872.352-5.792.48v-.64c1.568-1.248 3.2-2.88 4.48-4.384.8.64 1.696 1.472 2.112 1.952.512-.672.992-1.408 1.472-2.208.576 2.368 1.28 4.544 2.176 6.496-1.664 2.336-3.872 4.128-6.88 5.472.704.8 1.824 2.56 2.176 3.456 2.784-1.408 4.992-3.136 6.752-5.248 1.44 2.112 3.2 3.84 5.408 5.152.576-1.056 1.76-2.56 2.624-3.328-2.368-1.216-4.224-3.072-5.664-5.344 1.696-3.264 2.784-7.168 3.456-11.904h1.888zM189.759 167a14.44 14.44 0 01-5.408-1.04c-1.733-.693-3.12-1.543-4.16-2.548l2.912-4.368c.694.797 1.621 1.439 2.782 1.924 1.162.485 2.297.728 3.406.728 1.214 0 2.28-.26 3.198-.78a5.741 5.741 0 002.184-2.184c.538-.936.806-2.011.806-3.224 0-1.317-.242-2.487-.728-3.51a5.553 5.553 0 00-2.184-2.418c-.97-.589-2.149-.884-3.536-.884-1.178 0-2.279.165-3.302.494-1.022.329-2.123.823-3.302 1.482h-.052v-18.356h16.536v5.304h-11.7v8.112l-.728-1.144c.59-.173 1.214-.312 1.872-.416a12.66 12.66 0 011.976-.156c2.358 0 4.342.52 5.954 1.56a10.091 10.091 0 013.666 4.108c.832 1.699 1.248 3.571 1.248 5.616 0 2.184-.494 4.16-1.482 5.928a11.197 11.197 0 01-4.082 4.212c-1.733 1.04-3.692 1.56-5.876 1.56zm-29.912-.26c-2.08 0-3.995-.39-5.746-1.17a12.84 12.84 0 01-4.55-3.406c-1.282-1.491-2.288-3.319-3.016-5.486-.728-2.167-1.092-4.619-1.092-7.358 0-2.981.347-5.564 1.04-7.748.694-2.184 1.673-3.995 2.938-5.434a11.403 11.403 0 014.55-3.172c1.768-.676 3.727-1.014 5.876-1.014 2.115 0 4.048.381 5.798 1.144 1.751.763 3.268 1.889 4.55 3.38 1.283 1.491 2.28 3.319 2.99 5.486.711 2.167 1.066 4.619 1.066 7.358 0 2.808-.355 5.295-1.066 7.462-.71 2.167-1.716 3.987-3.016 5.46-1.3 1.473-2.816 2.591-4.55 3.354-1.733.763-3.657 1.144-5.772 1.144zm-.052-5.356c1.976 0 3.606-.511 4.888-1.534 1.283-1.023 2.236-2.461 2.86-4.316.624-1.855.936-3.978.936-6.37 0-2.323-.312-4.377-.936-6.162-.624-1.785-1.577-3.189-2.86-4.212-1.282-1.023-2.912-1.517-4.888-1.482-1.906-.035-3.501.459-4.784 1.482-1.282 1.023-2.236 2.435-2.86 4.238-.624 1.803-.936 3.9-.936 6.292 0 2.323.312 4.403.936 6.24.624 1.837 1.578 3.267 2.86 4.29 1.283 1.023 2.878 1.534 4.784 1.534zM128.479 167c-2.322 0-4.428-.555-6.317-1.664-1.89-1.109-3.389-2.704-4.498-4.784-1.11-2.08-1.664-4.559-1.664-7.436 0-2.219.433-4.333 1.3-6.344.866-2.011 2.036-3.909 3.51-5.694a36.506 36.506 0 014.992-4.966 59.482 59.482 0 015.798-4.212l3.691 4.056c-2.808 1.317-5.148 2.843-7.019 4.576-1.872 1.733-3.311 3.501-4.316 5.304-1.006 1.803-1.578 3.501-1.716 5.096l-1.404-.208c.935-1.976 2.157-3.51 3.666-4.602 1.508-1.092 3.458-1.638 5.85-1.638 1.733 0 3.388.477 4.965 1.43 1.578.953 2.852 2.245 3.822 3.874.971 1.629 1.456 3.519 1.456 5.668 0 2.357-.572 4.403-1.715 6.136a11.57 11.57 0 01-4.472 4.004c-1.838.936-3.814 1.404-5.929 1.404zm-.207-4.992c1.248 0 2.366-.269 3.354-.806a6.122 6.122 0 002.366-2.288c.589-.988.884-2.141.884-3.458 0-1.283-.295-2.392-.884-3.328a6.067 6.067 0 00-2.392-2.184c-1.006-.52-2.115-.78-3.328-.78-1.214 0-2.314.251-3.302.754s-1.777 1.179-2.366 2.028a4.854 4.854 0 00-.884 2.834v.936c0 1.109.286 2.149.858 3.12a6.312 6.312 0 002.366 2.314c1.005.572 2.114.858 3.328.858zm-27.876-2.428v2.784h-6.528v-2.784h6.528zm.704-16v2.272h-9.12v-2.272h9.12zm-2.048 7.872h-5.184v-2.624h5.184v2.624zm-14.72-2.88v1.536h-3.936v-1.536h3.936zm-3.936 5.6v-1.632h3.936v1.632h-3.936zm22.176.288v-7.968h2.048v-6.016h-6.368v-3.328h-3.648v3.328h-6.016v1.536c-1.152-1.6-3.168-3.488-4.864-4.832H80.3c-1.056 2.496-2.976 5.504-5.856 7.744.768.48 1.856 1.728 2.336 2.464l.224-.192v15.008c-.704.128-1.344.256-1.92.352l1.024 3.488a312.674 312.674 0 008.992-2.496c.384.96.672 1.824.864 2.56l3.232-1.472c-.576-2.08-2.144-5.12-3.68-7.424l-2.976 1.28c.416.704.832 1.44 1.248 2.208-1.152.288-2.304.544-3.392.8v-4.608h7.264v-11.04h-3.328v-2.656h-3.104v2.656h-2.784a26.972 26.972 0 004.128-5.472c1.568 1.44 3.2 3.552 3.968 4.928l2.048-2.368v3.552h1.824v20.544h3.456v-1.472h6.528v1.28h3.52v-10.4H93.868v-1.984h8.704zm-38.92-9.44H50.436v-3.456h13.216v3.456zm3.968-6.784H46.724v10.112H67.62v-10.112zm3.68 15.2v-3.456H42.66v3.456h6.048c-.736 2.304-1.6 4.672-2.336 6.368l4.16.64c.192-.512.416-1.056.608-1.664h12.064c-.448 2.592-.96 3.968-1.568 4.448-.448.288-.864.32-1.6.32-.96 0-3.296-.032-5.44-.256.736 1.056 1.248 2.56 1.312 3.648 2.24.096 4.32.128 5.536.032 1.504-.096 2.528-.352 3.52-1.248 1.152-1.056 1.92-3.584 2.56-8.832.128-.512.192-1.568.192-1.568H52.324l.608-1.888H71.3zm-47.832-20.674h9.256v34.268H27.16v-28.912h-3.692v-5.356zm-20.764 0h9.256v34.268H6.396v-28.912H2.704v-5.356zM43.52 92.56h3.4v-3.673h-3.4V83.89q2.04-.51 3.774-1.224c.34.782.68 1.802.748 2.482 5.814-.442 12.546-1.326 17.442-2.788l-2.822-3.026c-3.774 1.258-10.064 2.21-15.64 2.72l.102.17-2.482-2.482c-2.312 1.088-6.154 2.074-9.656 2.686.442.748.918 2.108 1.088 2.924 1.156-.17 2.38-.34 3.604-.578v4.114h-4.386v3.672h3.74c-.986 3.264-2.618 6.97-4.284 9.18.612 1.02 1.496 2.686 1.836 3.842 1.122-1.598 2.176-3.876 3.094-6.324v11.662h3.842V97.523c.748 1.156 1.496 2.346 1.904 3.128l2.244-3.094c-.612-.68-3.23-3.332-4.148-4.114v-.884zM32.606 99.8H18.972v-3.876H29.07V80.557H4.896v15.368h9.894v3.876H1.53v3.842h13.26v7.242h4.182v-7.242h13.634v-3.842zm38.25 10.744V81.407h28.356v29.138h-4.216v-2.074H74.902v2.074h-4.046zm-8.5-26.554c-.68 2.686-2.04 6.29-3.128 8.568l3.026.918h-8.67v17.51h3.604v-1.496h4.828v1.326h3.774v-17.34h-3.128c1.122-2.108 2.55-5.372 3.638-8.398l-3.944-1.088zm-53.482.136h16.014v2.482H8.874v-2.482zm49.912 6.494c-.272-1.632-1.02-4.08-1.904-5.916l-3.332.918c.816 1.87 1.564 4.386 1.7 6.018l3.536-1.02zm23.936 2.176v-7.48h-7.82v7.48h7.82zm4.114 0h8.16v-7.48h-8.16v7.48zM47.464 86.54c.986 1.802 1.87 4.216 2.108 5.848l3.434-1.156c-.306-1.632-1.258-3.978-2.346-5.678l-3.196.986zm-38.59 3.366h16.014v2.448H8.874v-2.448zM47.94 110.85h3.706V93H47.94v17.85zm34.782-14.008h-7.82v7.548h7.82v-7.548zm4.114 0v7.548h8.16v-7.548h-8.16zm-24.82.068v2.822h-4.828V96.91h4.828zm-4.828 9.146v-3.026h4.828v3.026h-4.828zm161.46-21.103c0 2.08 1.728 3.808 3.84 3.808s3.84-1.728 3.84-3.808a3.851 3.851 0 00-3.84-3.84 3.851 3.851 0 00-3.84 3.84zm-105 .16c.096.512.32 1.568.576 2.912-2.752.448-5.216.8-6.336.928-.992.128-1.952.192-2.976.224l.864 4.416c1.088-.288 1.92-.448 2.944-.672.992-.16 3.456-.576 6.272-1.024.288 1.632.64 3.424.96 5.152-3.232.512-6.208.992-7.68 1.184-1.024.128-2.464.32-3.328.352l.896 4.288c.736-.192 1.824-.416 3.2-.672 1.376-.256 4.384-.768 7.648-1.312.512 2.688.928 4.896 1.088 5.824.192.928.288 2.048.448 3.232l4.608-.832a77.19 77.19 0 01-.832-3.136c-.192-.992-.64-3.136-1.152-5.76 2.816-.448 5.408-.864 6.944-1.12 1.216-.192 2.528-.416 3.392-.48l-.864-4.224c-.832.256-2.016.512-3.264.768-1.44.288-4.064.736-6.944 1.216-.352-1.76-.672-3.52-.992-5.12 2.656-.416 5.088-.8 6.4-1.024.96-.128 2.24-.32 2.944-.384l-.768-4.192c-.768.224-1.984.48-3.008.672-1.152.224-3.584.608-6.304 1.056-.256-1.44-.448-2.496-.512-2.944-.16-.768-.256-1.856-.352-2.496l-4.512.736c.224.768.448 1.504.64 2.432zm106.984-.16c0-1.024.832-1.856 1.856-1.856s1.856.832 1.856 1.856c0 .992-.832 1.824-1.856 1.824s-1.856-.832-1.856-1.824zm-51.928 1.888l3.008-3.2c2.24 1.504 6.4 4.832 8.256 6.784l-3.264 3.328c-1.664-1.792-5.664-5.28-8-6.912zm81.36-2.528l2.624 1.952c-.256.352-.832 1.344-1.12 1.984-1.088 2.496-2.88 5.92-5.024 8.8 3.168 2.752 7.04 6.848 8.928 9.152l-3.648 3.168c-2.08-2.88-5.056-6.144-8.064-9.056-3.392 3.584-7.648 6.912-12.032 8.992l-3.296-3.456c5.152-1.92 10.112-5.824 13.12-9.184 2.112-2.4 4.064-5.568 4.768-7.84h-10.848c-1.344 0-3.104.192-3.776.224v-4.544c.864.128 2.816.224 3.776.224h11.296c1.376 0 2.656-.192 3.296-.416zm-33.112 13.024c1.28 3.456 2.432 7.488 3.328 11.296l4.736-1.536c-.896-3.168-2.592-8.288-3.712-11.168-1.216-3.104-3.424-8.032-4.736-10.496l-4.256 1.376c1.344 2.432 3.424 7.168 4.64 10.528zm-15.808.672c-1.088 2.816-2.976 6.272-4.992 8.896l4.48 1.888c1.696-2.4 3.584-6.048 4.736-9.152 1.12-2.976 2.272-7.392 2.72-9.632.128-.704.48-2.272.768-3.2l-4.672-.96c-.384 4.064-1.6 8.576-3.04 12.16zM145.8 87.641l-4.288 1.024c.352.672.672 1.44.896 2.272.224.704.512 1.728.832 2.976-1.472.288-2.624.48-3.072.544-1.056.192-1.92.288-2.944.384l.992 3.84c.96-.224 3.296-.704 5.984-1.28 1.152 4.352 2.464 9.344 2.944 11.072.256.896.48 1.952.576 2.816l4.352-1.088c-.256-.64-.672-2.08-.864-2.624-.48-1.664-1.856-6.592-3.072-11.008 3.456-.704 6.656-1.376 7.424-1.504-.864 1.568-3.104 4.288-4.736 5.76l3.52 1.76c2.24-2.4 5.472-7.2 6.816-10.016l-2.56-1.824a6.1 6.1 0 01-1.632.512c-1.248.288-5.728 1.152-9.792 1.92-.352-1.248-.64-2.336-.864-3.104a48.007 48.007 0 01-.512-2.432zm24.6 21.536l-2.688-4.224c4.992-.704 9.152-2.336 12.256-4.192 5.472-3.232 9.632-8.128 11.648-12.448l2.496 4.512c-2.432 4.32-6.688 8.736-11.84 11.84-3.232 1.952-7.36 3.744-11.872 4.512z" fill="#294898"/></svg>