<svg width="957" height="452" xmlns:xlink="http://www.w3.org/1999/xlink" xmlns="http://www.w3.org/2000/svg"><defs><clipPath id="c"><use xlink:href="#a"/></clipPath><clipPath id="d"><use xlink:href="#b"/></clipPath><path d="M74.999 0H355q1.841 0 3.68.09 1.839.09 3.672.271 1.832.18 3.653.45t3.627.63q1.806.36 3.591.807 1.786.447 3.548.981 1.762.535 3.496 1.155 1.733.62 3.434 1.325 1.701.704 3.365 1.492 1.665.787 3.288 1.655 1.624.868 3.203 1.814 1.58.947 3.11 1.97 1.531 1.022 3.01 2.12 1.479 1.096 2.902 2.264 1.423 1.168 2.787 2.404 1.365 1.237 2.666 2.539 1.302 1.302 2.539 2.666 1.236 1.364 2.404 2.787 1.168 1.423 2.265 2.902 1.097 1.479 2.119 3.01 1.023 1.53 1.97 3.11.946 1.579 1.814 3.203.868 1.623 1.655 3.288.787 1.664 1.492 3.365.705 1.7 1.325 3.434.62 1.734 1.155 3.496.534 1.761.981 3.547.448 1.786.807 3.592.359 1.806.629 3.627.27 1.821.451 3.653.18 1.833.271 3.672.09 1.838.09 3.68V75q0 1.84-.09 3.68-.091 1.838-.271 3.67-.181 1.833-.451 3.654t-.629 3.627q-.359 1.806-.807 3.592-.447 1.786-.981 3.548-.535 1.761-1.155 3.495-.62 1.733-1.325 3.434t-1.492 3.366q-.787 1.664-1.655 3.288-.868 1.623-1.814 3.203-.947 1.579-1.97 3.11-1.022 1.53-2.119 3.009-1.097 1.479-2.265 2.902-1.168 1.423-2.404 2.788-1.237 1.364-2.539 2.666-1.301 1.302-2.666 2.538-1.364 1.236-2.787 2.404-1.423 1.168-2.902 2.265-1.479 1.097-3.01 2.12-1.53 1.023-3.11 1.969-1.579.947-3.203 1.815-1.623.867-3.288 1.655-1.664.787-3.365 1.491-1.701.705-3.434 1.325-1.734.62-3.496 1.155-1.762.534-3.548.982-1.785.447-3.591.806-1.806.359-3.627.63-1.821.27-3.653.45-1.833.181-3.672.271-1.839.09-3.68.09H74.999q-1.841 0-3.68-.09-1.84-.09-3.672-.271-1.832-.18-3.653-.45-1.821-.271-3.627-.63-1.806-.359-3.592-.806-1.785-.448-3.547-.982-1.762-.535-3.496-1.155-1.733-.62-3.434-1.325-1.701-.704-3.365-1.491-1.665-.788-3.288-1.655-1.624-.868-3.203-1.815-1.58-.946-3.11-1.969-1.531-1.023-3.01-2.12-1.479-1.097-2.902-2.265-1.423-1.168-2.787-2.404-1.364-1.236-2.666-2.538-1.302-1.302-2.539-2.666-1.236-1.365-2.404-2.788-1.168-1.423-2.265-2.902-1.097-1.479-2.12-3.009-1.022-1.531-1.969-3.11-.946-1.58-1.814-3.203-.868-1.624-1.655-3.288-.788-1.665-1.492-3.366-.705-1.701-1.325-3.434-.62-1.734-1.155-3.495-.534-1.762-.981-3.548-.448-1.786-.807-3.592-.36-1.806-.63-3.627-.27-1.821-.45-3.653-.18-1.833-.27-3.671Q0 76.84 0 75v-.002q0-1.841.09-3.68.09-1.84.271-3.672.18-1.832.45-3.653t.63-3.627q.36-1.806.807-3.592.447-1.785.981-3.547.535-1.762 1.155-3.496.62-1.733 1.325-3.434.704-1.701 1.492-3.365.787-1.665 1.655-3.288.868-1.624 1.814-3.203.947-1.58 1.97-3.11 1.022-1.531 2.12-3.01 1.096-1.479 2.264-2.902 1.168-1.423 2.404-2.787 1.237-1.364 2.539-2.666 1.302-1.302 2.666-2.539 1.364-1.236 2.787-2.404 1.423-1.168 2.902-2.265 1.479-1.097 3.01-2.12 1.53-1.022 3.11-1.969 1.579-.946 3.203-1.814 1.623-.868 3.288-1.655 1.664-.788 3.365-1.492 1.7-.705 3.434-1.325 1.734-.62 3.496-1.155 1.761-.534 3.547-.981 1.786-.448 3.592-.807 1.806-.36 3.627-.63 1.821-.27 3.653-.45Q69.48.18 71.319.09 73.157 0 74.999 0z" id="a"/><path d="M110.999 0h413.002q2.725 0 5.446.134 2.722.133 5.434.4 2.712.268 5.407.667 2.695.4 5.368.932 2.672.531 5.315 1.193 2.644.663 5.251 1.454 2.608.79 5.173 1.709 2.566.918 5.083 1.96 2.518 1.043 4.981 2.208 2.463 1.165 4.867 2.45 2.403 1.284 4.74 2.685 2.337 1.4 4.603 2.915 2.265 1.514 4.454 3.137 2.189 1.623 4.295 3.352 2.106 1.728 4.125 3.558 2.019 1.83 3.946 3.757t3.757 3.946q1.83 2.019 3.558 4.125 1.729 2.106 3.352 4.295 1.623 2.189 3.137 4.454 1.514 2.266 2.915 4.603 1.401 2.337 2.685 4.74 1.285 2.404 2.45 4.867 1.165 2.463 2.208 4.98 1.042 2.518 1.96 5.084.918 2.565 1.709 5.173.791 2.607 1.453 5.25.662 2.644 1.194 5.316.532 2.673.932 5.368.399 2.695.666 5.407.268 2.712.401 5.434.134 2.721.134 5.446v.002q0 2.725-.134 5.446-.133 2.722-.401 5.434-.267 2.712-.666 5.407-.4 2.695-.932 5.368-.532 2.672-1.194 5.316-.662 2.643-1.453 5.25-.791 2.608-1.709 5.173-.918 2.566-1.96 5.083-1.043 2.518-2.208 4.981-1.165 2.463-2.45 4.867-1.284 2.403-2.685 4.74t-2.915 4.603q-1.514 2.265-3.137 4.454-1.623 2.189-3.352 4.295-1.728 2.106-3.558 4.125-1.83 2.019-3.757 3.946t-3.946 3.757q-2.019 1.83-4.125 3.558-2.106 1.729-4.295 3.352-2.189 1.623-4.454 3.137-2.266 1.514-4.603 2.915-2.337 1.401-4.74 2.685-2.404 1.285-4.867 2.45-2.463 1.165-4.981 2.208-2.517 1.042-5.083 1.96-2.565.918-5.173 1.709-2.607.791-5.251 1.453-2.643.663-5.315 1.194-2.673.532-5.368.932-2.695.399-5.407.667-2.712.267-5.434.4-2.721.134-5.446.134H110.999q-2.725 0-5.446-.134-2.722-.133-5.434-.401-2.712-.267-5.407-.666-2.695-.4-5.368-.932-2.672-.531-5.316-1.194-2.643-.662-5.25-1.453-2.608-.791-5.173-1.709-2.566-.918-5.084-1.96-2.517-1.043-4.98-2.208-2.463-1.165-4.867-2.45-2.403-1.284-4.74-2.685t-4.603-2.915q-2.265-1.514-4.454-3.137-2.189-1.623-4.295-3.352-2.106-1.728-4.125-3.558-2.02-1.83-3.946-3.757-1.927-1.927-3.757-3.946t-3.558-4.125q-1.729-2.106-3.352-4.295-1.623-2.189-3.137-4.454-1.514-2.266-2.915-4.603-1.4-2.337-2.685-4.74-1.285-2.404-2.45-4.867-1.165-2.463-2.208-4.981-1.042-2.517-1.96-5.083-.918-2.565-1.71-5.173-.79-2.607-1.453-5.25-.662-2.644-1.193-5.316-.532-2.673-.932-5.368-.4-2.695-.667-5.407t-.4-5.434Q0 113.726 0 111.001v-.002q0-2.725.134-5.446.133-2.722.4-5.434.268-2.712.667-5.407.4-2.695.932-5.368.531-2.672 1.193-5.316.663-2.643 1.454-5.25.79-2.608 1.709-5.173.918-2.566 1.96-5.084 1.043-2.517 2.208-4.98 1.165-2.463 2.45-4.867 1.284-2.403 2.685-4.74 1.4-2.337 2.915-4.603 1.514-2.265 3.137-4.454 1.623-2.189 3.352-4.295 1.728-2.106 3.558-4.125 1.83-2.02 3.757-3.946 1.927-1.927 3.946-3.757t4.125-3.558q2.106-1.729 4.295-3.352 2.189-1.623 4.454-3.137 2.266-1.514 4.603-2.915 2.337-1.4 4.74-2.685 2.404-1.285 4.867-2.45 2.463-1.165 4.98-2.208 2.518-1.042 5.084-1.96 2.565-.918 5.173-1.71 2.607-.79 5.25-1.453 2.644-.662 5.316-1.193 2.673-.532 5.368-.932 2.695-.4 5.407-.667t5.434-.4Q108.274 0 110.999 0z" id="b"/></defs><g fill-rule="evenodd"><path d="M300.463 148.305L822.65 338.366l-12.313 33.828-522.187-190.06 12.313-33.829z" fill="#E54F6D"/><path d="M551.457 277.97l-10.08-3.669v-23.588h10.08v27.257zm11.559 4.207l-1.191-.434v-31.03h9.144l.706 5.01c1.1-1.922 2.64-3.484 4.622-4.686q1.338-.812 2.943-1.265l14.23 5.18c.48 1.106.732 2.333.755 3.681v23.544h-10.08v-19.8c-.048-1.392-.42-2.508-1.116-3.348-.696-.84-1.86-1.26-3.492-1.26-1.536 0-2.88.504-4.032 1.512-1.152 1.008-2.04 2.376-2.664 4.104q-.936 2.592-.936 5.976v12.816h-8.89zm-20.612-45.812l9.69 3.527q-.12 2.001-1.681 3.297-1.692 1.404-3.708 1.404t-3.78-1.404q-1.764-1.404-1.764-3.636 0-1.873 1.243-3.188z" fill="#F0F8FF"/></g><path d="M600.249 300.65H880.25q1.841 0 3.68.09 1.839.09 3.672.271 1.832.18 3.653.45t3.627.63q1.806.36 3.592.807 1.785.447 3.547.981 1.762.535 3.496 1.155 1.733.62 3.434 1.325t3.365 1.492q1.665.787 3.288 1.655 1.624.868 3.203 1.814 1.58.947 3.11 1.97 1.531 1.022 3.01 2.12 1.479 1.096 2.902 2.264 1.423 1.168 2.787 2.404 1.365 1.237 2.666 2.539 1.302 1.302 2.539 2.666 1.236 1.364 2.404 2.787 1.168 1.423 2.265 2.902 1.097 1.479 2.119 3.01 1.023 1.53 1.97 3.11.946 1.579 1.814 3.203.868 1.623 1.655 3.288.787 1.664 1.492 3.365.705 1.7 1.325 3.434.62 1.734 1.155 3.496.534 1.762.981 3.548.448 1.785.807 3.591.359 1.806.629 3.627.27 1.821.451 3.654.18 1.832.271 3.67.09 1.84.09 3.68v.003q0 1.84-.09 3.68-.091 1.839-.271 3.67-.181 1.833-.451 3.654t-.629 3.627q-.359 1.806-.807 3.592-.447 1.786-.981 3.548-.535 1.761-1.155 3.495-.62 1.733-1.325 3.434t-1.492 3.366q-.787 1.664-1.655 3.288-.868 1.623-1.814 3.203-.947 1.579-1.97 3.11-1.023 1.53-2.119 3.009-1.097 1.479-2.265 2.902-1.168 1.423-2.404 2.788-1.237 1.364-2.539 2.666-1.301 1.302-2.666 2.538-1.364 1.236-2.787 2.404-1.423 1.168-2.902 2.265-1.479 1.097-3.01 2.12-1.531 1.023-3.11 1.969-1.579.947-3.203 1.815-1.623.867-3.288 1.655-1.664.787-3.365 1.491-1.701.705-3.434 1.325-1.734.62-3.496 1.155-1.762.534-3.547.982-1.786.447-3.592.806-1.806.359-3.627.63-1.821.27-3.653.45-1.833.181-3.672.271-1.839.09-3.68.09H600.249q-1.842 0-3.68-.09-1.84-.09-3.671-.271-1.833-.18-3.654-.45-1.821-.271-3.627-.63-1.806-.359-3.591-.806-1.786-.448-3.548-.982-1.762-.535-3.496-1.155-1.733-.62-3.434-1.325-1.701-.704-3.365-1.491-1.665-.788-3.288-1.655-1.624-.868-3.203-1.815-1.58-.946-3.11-1.969-1.531-1.023-3.01-2.12-1.479-1.097-2.902-2.265-1.423-1.168-2.787-2.404-1.365-1.236-2.666-2.538-1.302-1.302-2.539-2.666-1.236-1.365-2.404-2.788-1.168-1.423-2.265-2.902-1.097-1.479-2.12-3.009-1.022-1.531-1.969-3.11-.946-1.58-1.814-3.203-.868-1.624-1.655-3.288-.787-1.665-1.492-3.366t-1.325-3.434q-.62-1.734-1.155-3.495-.534-1.762-.981-3.548-.448-1.786-.807-3.592-.36-1.806-.63-3.627-.27-1.821-.45-3.653t-.27-3.671q-.091-1.84-.091-3.68v-.002q0-1.841.09-3.68.09-1.84.271-3.671.18-1.833.45-3.654t.63-3.627q.36-1.806.807-3.591.447-1.786.981-3.548.535-1.762 1.155-3.496.62-1.733 1.325-3.434t1.492-3.365q.787-1.665 1.655-3.288.868-1.624 1.814-3.203.947-1.58 1.97-3.11 1.022-1.531 2.12-3.01 1.096-1.479 2.264-2.902 1.168-1.423 2.404-2.787 1.237-1.364 2.539-2.666 1.301-1.302 2.666-2.539 1.364-1.236 2.787-2.404 1.423-1.168 2.902-2.265 1.479-1.097 3.01-2.12 1.53-1.022 3.11-1.969 1.579-.946 3.202-1.814 1.624-.868 3.289-1.655 1.664-.787 3.365-1.492 1.7-.705 3.434-1.325 1.734-.62 3.496-1.155 1.762-.534 3.548-.981 1.785-.448 3.591-.807 1.806-.36 3.627-.63 1.821-.27 3.653-.45 1.833-.18 3.672-.27 1.838-.091 3.68-.091z" fill="#E54F6D" fill-rule="evenodd"/><g transform="translate(515.25 290.65)"><use fill="#FFF" xlink:href="#a" fill-rule="evenodd"/><g clip-path="url(#c)"><use xlink:href="#a" fill="none" stroke="#294898" stroke-width="10"/></g></g><path d="M838.37 385.05c-2.96 5.28-8.4 10.4-14.08 13.6 2.24 1.52 6.08 4.48 7.84 6.24 5.76-3.92 12-10.4 15.76-17.2l-9.52-2.64zm53.52-1.92v-8.56h-60.8v8.56h25.6v13.28c0 .96-.32 1.2-1.68 1.2-1.2.08-5.84.08-9.76-.08 1.28 2.32 2.72 5.84 3.2 8.4 5.84.08 10.24 0 13.52-1.28 3.36-1.28 4.32-3.52 4.32-7.92v-13.6h25.6zm-18.8 6.48c5.52 4.64 12.32 11.28 15.28 15.6l8.4-5.2c-3.36-4.4-10.32-10.72-15.76-14.96l-7.92 4.56zm-34.56-41.44c2.56 1.6 5.28 3.52 7.2 4.96-.96 1.2-1.92 2.24-2.96 3.28-2-1.68-4.64-3.68-7.12-5.36 1.04-.96 1.92-1.92 2.88-2.88h0zm13.52-5.76c-.8 1.92-1.68 3.84-2.72 5.6-2-1.44-4.64-3.04-7.04-4.4l.88-1.2h8.88zm-.56 17.28c4.72-5.44 8.32-12.16 10.72-20.16 2.56 7.84 5.92 14.56 10.4 20.16h-21.12zm32.88-16c-1.76 2.88-3.92 5.92-6.16 8.48-2-2.56-3.76-5.44-5.28-8.48h11.44zm6.96-8.24l-1.84.56h-17.2v6.32c-1.44-3.2-2.72-6.64-3.68-10.32l-8.16 1.68c.4 1.36.72 2.72 1.12 4l-4.64-1.92-1.6.32h-8.08c.64-1.12 1.2-2.16 1.76-3.28l-8.88-1.52c-3.12 6.64-8.96 14.08-17.68 19.6 1.84 1.28 4.56 4.16 5.84 6.16.88-.64 1.76-1.28 2.56-1.92 2.4 1.76 4.96 3.92 6.88 5.68-4.4 3.28-9.36 5.84-14.72 7.52 1.84 1.76 3.92 5.2 5.04 7.44 6.88-2.64 13.28-6.24 18.64-11.12v3.52h30.16v-3.76c4.64 4.48 10.32 7.92 17.12 10.4 1.28-2.48 3.92-6.16 5.92-8-6.24-1.92-11.52-4.8-15.92-8.56 5.12-5.2 10.16-12.24 13.52-18.64l-6.16-4.16zm-111.76 55.12v-17.76h19.2v17.76h-19.2zm-28.08-17.76h18.4v17.76h-18.4v-17.76zm18.4-27.12v17.6h-18.4v-17.6h18.4zm28.88 17.6h-19.2v-17.6h19.2v17.6zm-56.8-26.8v68.56h9.52v-4.88h47.28v4.88h9.92v-68.56h-66.72zm-70.32 26.24h8v-8.64h-8v-11.76c3.2-.8 6.16-1.76 8.88-2.88.8 1.84 1.6 4.24 1.76 5.84 13.68-1.04 29.52-3.12 41.04-6.56l-6.64-7.12c-8.88 2.96-23.68 5.2-36.8 6.4l.24.4-5.84-5.84c-5.44 2.56-14.48 4.88-22.72 6.32 1.04 1.76 2.16 4.96 2.56 6.88 2.72-.4 5.6-.8 8.48-1.36v9.68h-10.32v8.64h8.8c-2.32 7.68-6.16 16.4-10.08 21.6 1.44 2.4 3.52 6.32 4.32 9.04 2.64-3.76 5.12-9.12 7.28-14.88v27.44h9.04v-31.52c1.76 2.72 3.52 5.52 4.48 7.36l5.28-7.28c-1.44-1.6-7.6-7.84-9.76-9.68v-2.08zm10.4 43.04h8.72v-42h-8.72v42zm-1.12-57.2c2.32 4.24 4.4 9.92 4.96 13.76l8.08-2.72c-.72-3.84-2.96-9.36-5.52-13.36l-7.52 2.32zm26.64 9.6c-.64-3.84-2.4-9.6-4.48-13.92l-7.84 2.16c1.92 4.4 3.68 10.32 4 14.16l8.32-2.4zm-3.76 36.32v-7.12h11.36v7.12h-11.36zm11.36-21.52v6.64h-11.36v-6.64h11.36zm.8-30.4c-1.6 6.32-4.8 14.8-7.36 20.16l7.12 2.16h-20.4v41.2h8.48v-3.52h11.36v3.12h8.88v-40.8h-7.36c2.64-4.96 6-12.64 8.56-19.76l-9.28-2.56zm-131.84 13.92h37.68v5.76h-37.68v-5.76zm0-13.6h37.68v5.84h-37.68v-5.84zm55.84 36.88h-32.08v-9.12h23.76v-36.16h-56.88v36.16h23.28v9.12h-31.2v9.04h31.2v17.04h9.84v-17.04h32.08v-9.04z" fill="none" stroke="#E54F6D" stroke-width="2.5"/><path d="M834.37 383.05c-2.96 5.28-8.4 10.4-14.08 13.6 2.24 1.52 6.08 4.48 7.84 6.24 5.76-3.92 12-10.4 15.76-17.2l-9.52-2.64zm53.52-1.92v-8.56h-60.8v8.56h25.6v13.28c0 .96-.32 1.2-1.68 1.2-1.2.08-5.84.08-9.76-.08 1.28 2.32 2.72 5.84 3.2 8.4 5.84.08 10.24 0 13.52-1.28 3.36-1.28 4.32-3.52 4.32-7.92v-13.6h25.6zm-18.8 6.48c5.52 4.64 12.32 11.28 15.28 15.6l8.4-5.2c-3.36-4.4-10.32-10.72-15.76-14.96l-7.92 4.56zm-34.56-41.44c2.56 1.6 5.28 3.52 7.2 4.96-.96 1.2-1.92 2.24-2.96 3.28-2-1.68-4.64-3.68-7.12-5.36 1.04-.96 1.92-1.92 2.88-2.88zm13.52-5.76c-.8 1.92-1.68 3.84-2.72 5.6-2-1.44-4.64-3.04-7.04-4.4l.88-1.2h8.88zm-.56 17.28c4.72-5.44 8.32-12.16 10.72-20.16 2.56 7.84 5.92 14.56 10.4 20.16h-21.12zm32.88-16c-1.76 2.88-3.92 5.92-6.16 8.48-2-2.56-3.76-5.44-5.28-8.48h11.44zm6.96-8.24l-1.84.56h-17.2v6.32c-1.44-3.2-2.72-6.64-3.68-10.32l-8.16 1.68c.4 1.36.72 2.72 1.12 4l-4.64-1.92-1.6.32h-8.08c.64-1.12 1.2-2.16 1.76-3.28l-8.88-1.52c-3.12 6.64-8.96 14.08-17.68 19.6 1.84 1.28 4.56 4.16 5.84 6.16.88-.64 1.76-1.28 2.56-1.92 2.4 1.76 4.96 3.92 6.88 5.68-4.4 3.28-9.36 5.84-14.72 7.52 1.84 1.76 3.92 5.2 5.04 7.44 6.88-2.64 13.28-6.24 18.64-11.12v3.52h30.16v-3.76c4.64 4.48 10.32 7.92 17.12 10.4 1.28-2.48 3.92-6.16 5.92-8-6.24-1.92-11.52-4.8-15.92-8.56 5.12-5.2 10.16-12.24 13.52-18.64l-6.16-4.16zm-111.76 55.12v-17.76h19.2v17.76h-19.2zm-28.08-17.76h18.4v17.76h-18.4v-17.76zm18.4-27.12v17.6h-18.4v-17.6h18.4zm28.88 17.6h-19.2v-17.6h19.2v17.6zm-56.8-26.8v68.56h9.52v-4.88h47.28v4.88h9.92v-68.56h-66.72zm-70.32 26.24h8v-8.64h-8v-11.76c3.2-.8 6.16-1.76 8.88-2.88.8 1.84 1.6 4.24 1.76 5.84 13.68-1.04 29.52-3.12 41.04-6.56l-6.64-7.12c-8.88 2.96-23.68 5.2-36.8 6.4l.24.4-5.84-5.84c-5.44 2.56-14.48 4.88-22.72 6.32 1.04 1.76 2.16 4.96 2.56 6.88 2.72-.4 5.6-.8 8.48-1.36v9.68h-10.32v8.64h8.8c-2.32 7.68-6.16 16.4-10.08 21.6 1.44 2.4 3.52 6.32 4.32 9.04 2.64-3.76 5.12-9.12 7.28-14.88v27.44h9.04v-31.52c1.76 2.72 3.52 5.52 4.48 7.36l5.28-7.28c-1.44-1.6-7.6-7.84-9.76-9.68v-2.08zm10.4 43.04h8.72v-42h-8.72v42zm-1.12-57.2c2.32 4.24 4.4 9.92 4.96 13.76l8.08-2.72c-.72-3.84-2.96-9.36-5.52-13.36l-7.52 2.32zm26.64 9.6c-.64-3.84-2.4-9.6-4.48-13.92l-7.84 2.16c1.92 4.4 3.68 10.32 4 14.16l8.32-2.4zm-3.76 36.32v-7.12h11.36v7.12h-11.36zm11.36-21.52v6.64h-11.36v-6.64h11.36zm.8-30.4c-1.6 6.32-4.8 14.8-7.36 20.16l7.12 2.16h-20.4v41.2h8.48v-3.52h11.36v3.12h8.88v-40.8h-7.36c2.64-4.96 6-12.64 8.56-19.76l-9.28-2.56zm-131.84 13.92h37.68v5.76h-37.68v-5.76zm0-13.6h37.68v5.84h-37.68v-5.84zm55.84 36.88h-32.08v-9.12h23.76v-36.16h-56.88v36.16h23.28v9.12h-31.2v9.04h31.2v17.04h9.84v-17.04h32.08v-9.04z" fill="#294898"/><path d="M122.249 11.25h413.002q2.725 0 5.446.134 2.722.133 5.434.4 2.711.268 5.407.667 2.695.4 5.368.932 2.672.531 5.315 1.194 2.644.662 5.251 1.453 2.608.79 5.173 1.708 2.566.919 5.083 1.961 2.518 1.043 4.981 2.208 2.463 1.165 4.867 2.45 2.403 1.284 4.74 2.685 2.337 1.4 4.603 2.915 2.265 1.514 4.454 3.137 2.189 1.623 4.295 3.352 2.106 1.728 4.125 3.558 2.019 1.83 3.946 3.757t3.757 3.946q1.83 2.019 3.558 4.125 1.729 2.106 3.352 4.295 1.623 2.189 3.137 4.454 1.514 2.266 2.915 4.603 1.401 2.337 2.685 4.74 1.285 2.404 2.45 4.867 1.165 2.463 2.208 4.98 1.042 2.518 1.96 5.084.918 2.565 1.709 5.173.791 2.607 1.453 5.25.663 2.644 1.194 5.316.532 2.673.932 5.368.399 2.695.667 5.407.267 2.712.4 5.434.134 2.721.134 5.446v.002q0 2.725-.134 5.446-.133 2.722-.4 5.434-.268 2.712-.667 5.407-.4 2.695-.932 5.368-.531 2.672-1.194 5.316-.662 2.643-1.453 5.25-.791 2.608-1.709 5.173-.918 2.566-1.96 5.083-1.043 2.518-2.208 4.981-1.165 2.463-2.45 4.867-1.284 2.403-2.685 4.74t-2.915 4.603q-1.514 2.265-3.137 4.454-1.623 2.189-3.352 4.295-1.728 2.106-3.558 4.125-1.83 2.019-3.757 3.946t-3.946 3.757q-2.019 1.83-4.125 3.558-2.106 1.729-4.295 3.352-2.189 1.623-4.454 3.137-2.266 1.514-4.603 2.915-2.337 1.401-4.74 2.685-2.404 1.285-4.867 2.45-2.463 1.165-4.981 2.208-2.517 1.042-5.083 1.96-2.565.918-5.173 1.709-2.607.791-5.251 1.453-2.643.663-5.315 1.194-2.673.532-5.368.932-2.696.399-5.407.666-2.712.268-5.434.401-2.721.134-5.446.134H122.249q-2.725 0-5.446-.134-2.722-.133-5.434-.401-2.712-.267-5.407-.666-2.695-.4-5.368-.932-2.672-.531-5.316-1.194-2.643-.662-5.25-1.453-2.608-.791-5.173-1.709-2.566-.918-5.084-1.96-2.517-1.043-4.98-2.208-2.463-1.165-4.867-2.45-2.403-1.284-4.74-2.685t-4.603-2.915q-2.265-1.514-4.454-3.137-2.189-1.623-4.295-3.352-2.106-1.728-4.125-3.558-2.02-1.83-3.946-3.757-1.927-1.927-3.757-3.946t-3.558-4.125q-1.729-2.106-3.352-4.295-1.623-2.189-3.137-4.454-1.514-2.266-2.915-4.603-1.4-2.337-2.685-4.74-1.285-2.404-2.45-4.867-1.165-2.463-2.208-4.981-1.043-2.517-1.96-5.083-.918-2.565-1.71-5.173-.79-2.607-1.452-5.25-.663-2.644-1.194-5.316-.532-2.673-.932-5.368-.4-2.695-.666-5.407-.268-2.712-.401-5.434-.134-2.721-.134-5.446v-.002q0-2.725.134-5.446.133-2.722.4-5.434.268-2.712.667-5.407.4-2.695.932-5.368.531-2.672 1.194-5.316.662-2.643 1.453-5.25.79-2.608 1.708-5.173.919-2.566 1.961-5.084 1.043-2.517 2.208-4.98 1.165-2.463 2.45-4.867 1.284-2.403 2.685-4.74 1.4-2.337 2.915-4.603 1.514-2.265 3.137-4.454 1.623-2.189 3.352-4.295 1.728-2.106 3.558-4.125 1.83-2.02 3.757-3.946 1.927-1.927 3.946-3.757t4.125-3.558q2.106-1.729 4.295-3.352 2.189-1.623 4.454-3.137 2.266-1.514 4.603-2.915 2.337-1.4 4.74-2.685 2.404-1.285 4.867-2.45 2.463-1.165 4.98-2.208 2.518-1.043 5.084-1.96 2.565-.918 5.173-1.71 2.607-.79 5.25-1.452 2.644-.663 5.316-1.194 2.673-.532 5.368-.932 2.695-.4 5.407-.666 2.712-.268 5.434-.401 2.721-.134 5.446-.134z" fill="#E54F6D" fill-rule="evenodd"/><g transform="translate(1.25 1.25)"><use fill="#294898" xlink:href="#b" fill-rule="evenodd"/><g clip-path="url(#d)"><use xlink:href="#b" fill="none" stroke="#FFF" stroke-width="6"/></g></g><path d="M413.438 63.53h24.48l22.608 66.528-3.312-1.44 19.728-49.104 9.648 28.656-30.528 65.52-42.624-110.16zm53.136 0h20.736l26.064 64.368-3.744-.576 19.44-63.792h22.464l-40.896 109.872L466.574 63.53zm-86.352 94.896c0-2.976 1.08-5.472 3.24-7.488s4.536-3.024 7.128-3.024c2.4 0 4.68 1.008 6.84 3.024s3.24 4.512 3.24 7.488c0 3.168-1.08 5.688-3.24 7.56-2.16 1.872-4.44 2.808-6.84 2.808-2.592 0-4.968-.936-7.128-2.808-2.16-1.872-3.24-4.392-3.24-7.56zm-21.84-69.984a79.722 79.722 0 00-12.312-5.472c-4.176-1.44-8.088-2.16-11.736-2.16-4.512 0-8.064.912-10.656 2.736-2.592 1.824-3.888 4.56-3.888 8.208 0 2.496.984 4.728 2.952 6.696s4.512 3.72 7.632 5.256 6.36 2.928 9.72 4.176a80.995 80.995 0 019.144 4.104 34.275 34.275 0 018.136 5.904c2.4 2.352 4.32 5.28 5.76 8.784 1.44 3.504 2.16 7.8 2.16 12.888 0 5.376-1.392 10.368-4.176 14.976-2.784 4.608-6.864 8.328-12.24 11.16-5.376 2.832-12 4.248-19.872 4.248-4.032 0-8.136-.408-12.312-1.224a63.718 63.718 0 01-12.312-3.744c-4.032-1.68-7.92-3.816-11.664-6.408l9.216-16.272a50.486 50.486 0 008.136 4.824 49.302 49.302 0 008.856 3.24c2.976.768 5.712 1.152 8.208 1.152 2.496 0 5.016-.36 7.56-1.08 2.544-.72 4.656-1.944 6.336-3.672 1.68-1.728 2.52-4.128 2.52-7.2 0-2.112-.696-4.032-2.088-5.76-1.392-1.728-3.264-3.312-5.616-4.752s-4.92-2.688-7.704-3.744a144.54 144.54 0 01-10.08-4.32 51.845 51.845 0 01-9.72-5.976c-3.024-2.352-5.472-5.28-7.344-8.784-1.872-3.504-2.808-7.8-2.808-12.888 0-6.144 1.368-11.472 4.104-15.984 2.736-4.512 6.6-8.088 11.592-10.728 4.992-2.64 10.752-4.104 17.28-4.392 8.544 0 15.48 1.008 20.808 3.024 5.328 2.016 10.104 4.416 14.328 7.2l-7.92 15.984zM247.55 62.81h20.88v105.984h-20.88V62.81zM105.038 168.794V58.49h.144l58.896 83.52-8.928-2.016 58.752-81.504h.288v110.304h-20.88v-63.216l1.296 10.8-35.856 50.976h-.288l-36.864-50.976 3.6-9.936v62.352h-20.16z" fill="#E54F6D"/><path d="M407.438 56.53h24.48l22.608 66.528-3.312-1.44 19.728-49.104 9.648 28.656-30.528 65.52-42.624-110.16zm53.136 0h20.736l26.064 64.368-3.744-.576 19.44-63.792h22.464l-40.896 109.872L460.574 56.53zm-86.352 94.896c0-2.976 1.08-5.472 3.24-7.488s4.536-3.024 7.128-3.024c2.4 0 4.68 1.008 6.84 3.024s3.24 4.512 3.24 7.488c0 3.168-1.08 5.688-3.24 7.56-2.16 1.872-4.44 2.808-6.84 2.808-2.592 0-4.968-.936-7.128-2.808-2.16-1.872-3.24-4.392-3.24-7.56zm-21.84-69.984a79.722 79.722 0 00-12.312-5.472c-4.176-1.44-8.088-2.16-11.736-2.16-4.512 0-8.064.912-10.656 2.736-2.592 1.824-3.888 4.56-3.888 8.208 0 2.496.984 4.728 2.952 6.696s4.512 3.72 7.632 5.256 6.36 2.928 9.72 4.176a80.995 80.995 0 019.144 4.104 34.275 34.275 0 018.136 5.904c2.4 2.352 4.32 5.28 5.76 8.784 1.44 3.504 2.16 7.8 2.16 12.888 0 5.376-1.392 10.368-4.176 14.976-2.784 4.608-6.864 8.328-12.24 11.16-5.376 2.832-12 4.248-19.872 4.248-4.032 0-8.136-.408-12.312-1.224a63.718 63.718 0 01-12.312-3.744c-4.032-1.68-7.92-3.816-11.664-6.408l9.216-16.272a50.486 50.486 0 008.136 4.824 49.302 49.302 0 008.856 3.24c2.976.768 5.712 1.152 8.208 1.152 2.496 0 5.016-.36 7.56-1.08 2.544-.72 4.656-1.944 6.336-3.672 1.68-1.728 2.52-4.128 2.52-7.2 0-2.112-.696-4.032-2.088-5.76-1.392-1.728-3.264-3.312-5.616-4.752s-4.92-2.688-7.704-3.744a144.54 144.54 0 01-10.08-4.32 51.845 51.845 0 01-9.72-5.976c-3.024-2.352-5.472-5.28-7.344-8.784-1.872-3.504-2.808-7.8-2.808-12.888 0-6.144 1.368-11.472 4.104-15.984 2.736-4.512 6.6-8.088 11.592-10.728 4.992-2.64 10.752-4.104 17.28-4.392 8.544 0 15.48 1.008 20.808 3.024 5.328 2.016 10.104 4.416 14.328 7.2l-7.92 15.984zM241.55 55.81h20.88v105.984h-20.88V55.81zM99.038 161.794V51.49h.144l58.896 83.52-8.928-2.016 58.752-81.504h.288v110.304h-20.88V98.578l1.296 10.8-35.856 50.976h-.288l-36.864-50.976 3.6-9.936v62.352h-20.16z" fill="#294898"/><path d="M397.438 51.53h24.48l22.608 66.528-3.312-1.44 19.728-49.104 9.648 28.656-30.528 65.52-42.624-110.16zm53.136 0h20.736l26.064 64.368-3.744-.576 19.44-63.792h22.464l-40.896 109.872L450.574 51.53zm-86.352 94.896c0-2.976 1.08-5.472 3.24-7.488s4.536-3.024 7.128-3.024c2.4 0 4.68 1.008 6.84 3.024s3.24 4.512 3.24 7.488c0 3.168-1.08 5.688-3.24 7.56-2.16 1.872-4.44 2.808-6.84 2.808-2.592 0-4.968-.936-7.128-2.808-2.16-1.872-3.24-4.392-3.24-7.56h0zm-21.84-69.984a79.722 79.722 0 00-12.312-5.472c-4.176-1.44-8.088-2.16-11.736-2.16-4.512 0-8.064.912-10.656 2.736-2.592 1.824-3.888 4.56-3.888 8.208 0 2.496.984 4.728 2.952 6.696s4.512 3.72 7.632 5.256 6.36 2.928 9.72 4.176a80.995 80.995 0 019.144 4.104 34.275 34.275 0 018.136 5.904c2.4 2.352 4.32 5.28 5.76 8.784 1.44 3.504 2.16 7.8 2.16 12.888 0 5.376-1.392 10.368-4.176 14.976-2.784 4.608-6.864 8.328-12.24 11.16-5.376 2.832-12 4.248-19.872 4.248-4.032 0-8.136-.408-12.312-1.224a63.718 63.718 0 01-12.312-3.744c-4.032-1.68-7.92-3.816-11.664-6.408l9.216-16.272a50.486 50.486 0 008.136 4.824 49.302 49.302 0 008.856 3.24c2.976.768 5.712 1.152 8.208 1.152 2.496 0 5.016-.36 7.56-1.08 2.544-.72 4.656-1.944 6.336-3.672 1.68-1.728 2.52-4.128 2.52-7.2 0-2.112-.696-4.032-2.088-5.76-1.392-1.728-3.264-3.312-5.616-4.752s-4.92-2.688-7.704-3.744a144.54 144.54 0 01-10.08-4.32 51.845 51.845 0 01-9.72-5.976c-3.024-2.352-5.472-5.28-7.344-8.784-1.872-3.504-2.808-7.8-2.808-12.888 0-6.144 1.368-11.472 4.104-15.984 2.736-4.512 6.6-8.088 11.592-10.728 4.992-2.64 10.752-4.104 17.28-4.392 8.544 0 15.48 1.008 20.808 3.024 5.328 2.016 10.104 4.416 14.328 7.2l-7.92 15.984zM231.55 50.81h20.88v105.984h-20.88V50.81zM89.038 156.794V46.49h.144l58.896 83.52-8.928-2.016 58.752-81.504h.288v110.304h-20.88V93.578l1.296 10.8-35.856 50.976h-.288l-36.864-50.976 3.6-9.936v62.352h-20.16z" fill="#FFF" stroke="#FFF" stroke-width="2.5"/></svg>