<svg xmlns="http://www.w3.org/2000/svg" viewBox="0 0 465.72 68.38"><defs><style>.cls-1{fill:#fff;}</style></defs><title>kv-heading</title><g id="レイヤー_2" data-name="レイヤー 2"><g id="レイヤー_1-2" data-name="レイヤー 1"><path class="cls-1" d="M25.84,20.3H14.62v6H11.17v-6H.25V17.14H11.17v-3.2H3V1.29H22.93V13.94H14.62v3.2H25.84ZM6.3,6.27H19.49v-2H6.3ZM6.3,11H19.49V9H6.3Z"/><path class="cls-1" d="M37.63,11.9c.76.64,2.91,2.83,3.42,3.39L39.2,17.84c-.34-.65-1-1.63-1.57-2.58v11H34.47v-9.6a25,25,0,0,1-2.55,5.21,18.34,18.34,0,0,0-1.48-3.17,27.71,27.71,0,0,0,3.5-7.56H30.86v-3h3.61V4.76c-1,.2-2,.34-3,.48a10.37,10.37,0,0,0-.87-2.41A36.29,36.29,0,0,0,38.56.62l2,2-.08-.14A65.67,65.67,0,0,0,53.4.28l2.32,2.49a74.47,74.47,0,0,1-14.36,2.3A8.3,8.3,0,0,0,40.74,3a21.4,21.4,0,0,1-3.11,1V8.15h2.8v3h-2.8Zm5.88-6.5a14.86,14.86,0,0,1,1.93,4.68L42.62,11a16.64,16.64,0,0,0-1.74-4.81Zm-2.24,6.14h3v14.7h-3Zm6-1.12a18.22,18.22,0,0,0-1.4-5l2.75-.76A20.65,20.65,0,0,1,50.2,9.58ZM56.39,5a60.3,60.3,0,0,1-3,6.92H56V26.21H52.86V25.12h-4v1.23h-3V11.93h7.14l-2.49-.76a44.07,44.07,0,0,0,2.57-7Zm-7.5,9.75v2.32h4V14.76Zm4,7.53V19.8h-4v2.49Z"/><path class="cls-1" d="M86.3,2V26H82.82v-1.7H66.28V26H62.94V2Zm-20,3.22v6.16h6.44V5.21Zm0,15.71h6.44V14.7H66.28ZM82.82,5.21H76.1v6.16h6.72Zm0,15.71V14.7H76.1v6.22Z"/><path class="cls-1" d="M108,11.09c1.85,5.46,5.23,9.85,10.47,12A13.39,13.39,0,0,0,116,26.21c-5.07-2.38-8.32-6.47-10.5-11.87A19.32,19.32,0,0,1,95,26.24a9.76,9.76,0,0,0-2.49-2.83,16.83,16.83,0,0,0,10.17-12.32H93V7.64h10.2c.28-2.63.25-5.18.28-7.47h3.64c0,2.29-.06,4.87-.34,7.47h11v3.45Z"/><path class="cls-1" d="M148.68,19H137.9v3.73c0,1.73-.36,2.6-1.74,3.08a17.13,17.13,0,0,1-5.43.53,15,15,0,0,0-1.37-3.25c1.79.09,3.86.09,4.42.06s.73-.11.73-.51V19H123.76V15.9h10.75V14.08h1.6a17.62,17.62,0,0,0,2.15-1.54h-9.49V9.66h12.57l.73-.17,2.1,1.63a26.71,26.71,0,0,1-6,4.78h10.53Zm-21.42-7.61h-3.14V4.56h3.81A23.73,23.73,0,0,0,126,1.68L128.83.42a15.34,15.34,0,0,1,2.55,3.67l-1,.47h4.39A19.78,19.78,0,0,0,133,1.06L135.94,0a16.05,16.05,0,0,1,2.18,4l-1.34.53H141A24.11,24.11,0,0,0,143.42.31L147,1.4c-.76,1.09-1.57,2.18-2.35,3.16h3.72v6.81h-3.28V7.5H127.26Z"/><path class="cls-1" d="M157.72,17A25.58,25.58,0,0,1,156,24.22,16.54,16.54,0,0,0,153.5,23a20.4,20.4,0,0,0,1.48-6.5ZM179.26,2.3a17.87,17.87,0,0,1-4.57,7.25,20.08,20.08,0,0,0,5.74,2.13,13.38,13.38,0,0,0-2,2.68,20.37,20.37,0,0,1-6.25-2.8,24.81,24.81,0,0,1-6.38,2.94A13.14,13.14,0,0,0,164,11.82a16.07,16.07,0,0,1,1.14,3.3l-2.35,1.06a11.84,11.84,0,0,0-.36-1.42l-1.43.11V26.32h-2.88V15.06l-4.06.26-.28-2.89,2-.08c.42-.53.87-1.15,1.32-1.79a26.94,26.94,0,0,0-3.31-3.81l1.6-2.27L156,5A35.49,35.49,0,0,0,158.09.17L161,1.23c-1,1.91-2.13,4.06-3.13,5.63.36.39.67.78.95,1.12a49.46,49.46,0,0,0,2.49-4.54L164,4.7c-1.54,2.44-3.48,5.27-5.24,7.54l2.69-.12c-.31-.7-.65-1.4-1-2l2.21-.93A27,27,0,0,1,164,11.76a21.74,21.74,0,0,0,5.57-2.32,17.93,17.93,0,0,1-3.3-4.57L168,4.28h-3.19V1.43h11.59l.59-.14Zm-15.85,14a29.89,29.89,0,0,1,1.73,5l-2.46.89A33.58,33.58,0,0,0,161.06,17Zm10.47,6.3H180v2.91H164.19V22.6h6.41V19.32h-4.76V16.38h4.76V13.05h3.28v3.33h5v2.94h-5ZM169.32,4.28A12.56,12.56,0,0,0,172,7.62a13.92,13.92,0,0,0,2.75-3.34Z"/><path class="cls-1" d="M209.83,4.48v6h-3.22V7.31h-17.5v3.13h-3v-6h3.39a25.81,25.81,0,0,0-1.85-2.74L190.51.5A17.66,17.66,0,0,1,193,4.09l-.89.39h4.31A22.54,22.54,0,0,0,194.6,1l2.91-1a18.71,18.71,0,0,1,2.13,3.69l-2,.73h4.59A21.22,21.22,0,0,0,204.76.25l3.59,1.12c-.81,1.07-1.65,2.19-2.44,3.11ZM199.28,15.54c-.23.62-.48,1.18-.73,1.71h9.27v9.1h-3.31v-.93H191.38v.93h-3.16v-9.1h7c.14-.56.31-1.15.42-1.71h-5.09V8.68h14.61v6.86Zm5.23,4.56H191.38v2.44h13.13Zm-10.86-7H202v-2h-8.31Z"/><path class="cls-1" d="M215.15,13a36.43,36.43,0,0,0,1.15-7.3l2.35.3a37.32,37.32,0,0,1-1.09,7.82Zm26.43-4v2.38H223.24V9h7.42V7.78h-5.79l0,.14L222.74,9a23.79,23.79,0,0,0-1-3.08V26.26h-3V.14h3V4.62L223.3,4a33.23,33.23,0,0,1,1.57,3.81V5.54h5.79V4.42h-6.55V2h6.55V.14H234V2h6.77V4.42H234V5.54h6V7.78h-6V9ZM239.71,23.1c0,1.46-.28,2.24-1.29,2.69a10.84,10.84,0,0,1-4.31.47,11,11,0,0,0-.9-2.82c1.15.08,2.47,0,2.83,0s.53-.11.53-.45v-.92H228.2v4.2h-3.08V12.43h14.59ZM228.2,14.87v1.31h8.37V14.87Zm8.37,5V18.54H228.2v1.28Z"/><path class="cls-1" d="M254.38,7.31h4.68v2.8h-2.33l1.09.28c-.47,1-.89,2.13-1.28,3h2.1v2.8h-4.26v2.15h3.95v2.8h-3.95v5.1H251.3v-5.1h-4.17v-2.8h4.17V16.16h-4.4v-2.8H249a15.37,15.37,0,0,0-.92-3l1-.25h-2.77V7.31h5V5.38h-4V2.63h4V.2h3.08V2.63H258V5.38h-3.64ZM254,13.1c.31-.84.73-2,1-3h-4.26a11.77,11.77,0,0,1,1,3l-.89.26h4.08Zm17.89-1.62a28.57,28.57,0,0,1-2.94,9.16,13.64,13.64,0,0,0,3.89,3.05,11.15,11.15,0,0,0-2.15,2.63,14.35,14.35,0,0,1-3.5-3,15.52,15.52,0,0,1-3.06,3,9.39,9.39,0,0,0-1.54-1.74v1.65h-3V1.32h11.68V6.58c0,1.43-.31,2.24-1.4,2.69a13,13,0,0,1-4.62.47,11.14,11.14,0,0,0-1-2.85c1.38.05,2.92.05,3.34.05s.56-.11.56-.42V4.23h-5.58v6.69h6.75l.56-.14Zm-9.3,12.12a14.31,14.31,0,0,0,2.69-2.85,27.81,27.81,0,0,1-2.69-6.05Zm2.36-10a20.85,20.85,0,0,0,2,4.34,20.21,20.21,0,0,0,1.49-4.34Z"/><path class="cls-1" d="M302.68,19H291.9v3.73c0,1.73-.36,2.6-1.74,3.08a17.13,17.13,0,0,1-5.43.53,15,15,0,0,0-1.37-3.25c1.79.09,3.86.09,4.42.06s.73-.11.73-.51V19H277.76V15.9h10.75V14.08h1.6a17.62,17.62,0,0,0,2.15-1.54h-9.49V9.66h12.57l.73-.17,2.1,1.63a26.71,26.71,0,0,1-6,4.78h10.53Zm-21.42-7.61h-3.14V4.56h3.81A23.73,23.73,0,0,0,280,1.68L282.83.42a15.34,15.34,0,0,1,2.55,3.67l-1,.47h4.39A19.78,19.78,0,0,0,287,1.06L289.94,0a16.05,16.05,0,0,1,2.18,4l-1.34.53H295A24.11,24.11,0,0,0,297.42.31L301,1.4c-.76,1.09-1.57,2.18-2.35,3.16h3.72v6.81h-3.28V7.5H281.26Z"/><path class="cls-1" d="M314.47,9.55a33.79,33.79,0,0,1-4.73,2.8,13.4,13.4,0,0,0-2-2.8A27.7,27.7,0,0,0,319.09.17h3.47A25.61,25.61,0,0,0,334.4,9a17.46,17.46,0,0,0-2.15,3.06,34.54,34.54,0,0,1-4.71-2.72v2.21H314.47Zm-5,4.37h23.16V17H320.12c-.81,1.65-1.73,3.38-2.57,4.95,2.69-.08,5.57-.19,8.43-.31a33.91,33.91,0,0,0-2.75-2.85l2.94-1.54a37.37,37.37,0,0,1,6.41,7.19l-3.1,1.88a16.59,16.59,0,0,0-1.12-1.74c-6.58.37-13.5.65-18.26.87l-.45-3.25,4.23-.14A52.47,52.47,0,0,0,316,17h-6.5Zm16.83-5.38A27,27,0,0,1,321,3.36a25.16,25.16,0,0,1-5.12,5.18Z"/><path class="cls-1" d="M347.17,15A26.84,26.84,0,0,1,351.34.53l2.58,1.09A27,27,0,0,0,350.5,15a27,27,0,0,0,3.42,13.41l-2.58,1.09A26.83,26.83,0,0,1,347.17,15Z"/><path class="cls-1" d="M360.72,3.14h4.6l3.52,9.68c.45,1.29.84,2.66,1.26,4h.14c.45-1.35.82-2.72,1.26-4L375,3.14h4.59V23.86h-3.78V15.2c0-2,.31-4.84.5-6.8h-.11l-1.68,4.87L371.28,22H368.9l-3.22-8.71L364,8.4h-.11c.19,2,.53,4.84.53,6.8v8.66h-3.73Z"/><path class="cls-1" d="M387.44,3.14h4.14V23.86h-4.14Z"/><path class="cls-1" d="M398.1,21.22l2.38-2.85a8.18,8.18,0,0,0,5.27,2.29c2.15,0,3.3-.92,3.3-2.38s-1.26-2-3.11-2.8l-2.77-1.17c-2.1-.87-4.2-2.55-4.2-5.57,0-3.39,3-6,7.17-6a9.24,9.24,0,0,1,6.5,2.66L410.54,8a6.64,6.64,0,0,0-4.4-1.71c-1.82,0-3,.81-3,2.18s1.49,2,3.25,2.72l2.72,1.15c2.52,1,4.17,2.63,4.17,5.63,0,3.38-2.83,6.27-7.62,6.27A11,11,0,0,1,398.1,21.22Z"/><path class="cls-1" d="M419.19,21.56a2.56,2.56,0,1,1,5.12,0,2.56,2.56,0,1,1-5.12,0Z"/><path class="cls-1" d="M429.6,3.14h4.23l1.65,10.1c.31,2.19.65,4.4.95,6.61h.12c.42-2.21.87-4.45,1.31-6.61l2.41-10.1h3.53l2.41,10.1c.44,2.13.86,4.37,1.31,6.61h.14c.31-2.24.62-4.45.93-6.61l1.62-10.1h4l-3.84,20.72h-5.15l-2.32-10.25c-.34-1.63-.65-3.22-.9-4.79h-.11c-.28,1.57-.56,3.16-.9,4.79l-2.27,10.25h-5.06Z"/><path class="cls-1" d="M459,28.42A26.86,26.86,0,0,0,462.39,15,26.92,26.92,0,0,0,459,1.62L461.52.53A26.61,26.61,0,0,1,465.72,15a26.6,26.6,0,0,1-4.2,14.5Z"/><path class="cls-1" d="M.2,63.48c5.62-5,9-8.94,9-12.13C9.16,49.25,8,48,6.05,48a5.38,5.38,0,0,0-3.81,2.13L0,47.88c1.9-2,3.75-3.14,6.58-3.14,3.92,0,6.52,2.52,6.52,6.39S10,58.91,6.22,62.61c1-.11,2.4-.23,3.36-.23h4.5v3.48H.2Z"/><path class="cls-1" d="M19.52,55.41c0-7.17,2.8-10.67,7-10.67s7,3.53,7,10.67-2.8,10.84-7,10.84S19.52,62.55,19.52,55.41Zm10.13,0c0-5.79-1.34-7.47-3.11-7.47s-3.13,1.68-3.13,7.47S24.75,63,26.54,63,29.65,61.24,29.65,55.41Z"/><path class="cls-1" d="M38.78,63.48c5.63-5,9-8.94,9-12.13,0-2.1-1.15-3.36-3.11-3.36a5.38,5.38,0,0,0-3.81,2.13l-2.24-2.24c1.91-2,3.75-3.14,6.58-3.14,3.92,0,6.53,2.52,6.53,6.39s-3.11,7.78-6.89,11.48c1-.11,2.41-.23,3.36-.23h4.51v3.48H38.78Z"/><path class="cls-1" d="M58.1,55.41c0-7.17,2.8-10.67,7-10.67s7,3.53,7,10.67-2.8,10.84-7,10.84S58.1,62.55,58.1,55.41Zm10.14,0c0-5.79-1.35-7.47-3.11-7.47S62,49.62,62,55.41,63.34,63,65.13,63,68.24,61.24,68.24,55.41Z"/><path class="cls-1" d="M110,62.33h-9.57v6H97v-6H84.36V59.14h4.43V51.8H97V48.44H91a25.18,25.18,0,0,1-3.81,5.1,26,26,0,0,0-2.88-2.16,21.57,21.57,0,0,0,5.88-9.32l3.39.86a16.77,16.77,0,0,1-.93,2.3h15.82v3.22h-8V51.8h7.39v3.08h-7.39v4.26H110ZM97,59.14V54.88H92.12v4.26Z"/><path class="cls-1" d="M120.32,52.5c0,4.54-.42,11.4-3,15.71a11.86,11.86,0,0,0-2.72-1.82c2.33-4,2.49-9.8,2.49-13.89V44.66h10V42.17h3.47v2.49h9.94v3H120.32ZM139,59a13.8,13.8,0,0,1-4.78,5.32,37.2,37.2,0,0,0,6.88,1.2,13.31,13.31,0,0,0-2,2.86,29.59,29.59,0,0,1-8.51-2.22,37.54,37.54,0,0,1-9.21,2.19,11.29,11.29,0,0,0-1.34-2.8,38.82,38.82,0,0,0,7.25-1.26,14.19,14.19,0,0,1-3.22-3.11l1.31-.48h-4.17V58.1H136.3l.59-.14ZM124.8,57V52.61H121V50h3.78V48.13h3.13V50H133V48.13h3.3V50h4v2.63h-4V57Zm2.63,3.72A11.1,11.1,0,0,0,130.7,63a12.63,12.63,0,0,0,3.36-2.3Zm.5-8.09v1.85H133V52.61Z"/><path class="cls-1" d="M154.22,59c1,.7,3.34,2.55,4,3.06l-1.93,2.38a26.29,26.29,0,0,0-2.05-2.19v6H151V62.61a19.78,19.78,0,0,1-3.55,4,12.76,12.76,0,0,0-2.16-2.36,18.33,18.33,0,0,0,5-5.4h-4.25V56H151V53.84h-5V51.1h2.58a12.62,12.62,0,0,0-.84-3.08l1.71-.39H146.3V44.91H151V42.36h3.22v2.55h4.65v2.72H156l1.62.31c-.5,1.2-1,2.32-1.34,3.16h2.83v2.74h-4.88V56h4.62v2.8h-4.62Zm-3.86-11.39a10.82,10.82,0,0,1,.95,3.08l-1.4.39h5.49l-1.85-.39a21,21,0,0,0,1-3.08Zm21.45,6.8h-2.66V68.12h-3.22V54.43h-2.86c0,4.17-.61,10.08-4.31,13.92a7.59,7.59,0,0,0-2.38-2.27c3.22-3.42,3.56-8.18,3.56-12V44.32l2,.56A32.7,32.7,0,0,0,169,42.42l2.66,2.44a45.25,45.25,0,0,1-8.6,2.57v3.92h8.74Z"/><path class="cls-1" d="M197.46,53.14c0,2.72,1,8.82,5.37,12.18a30.93,30.93,0,0,0-2,2.94c-3.19-2.38-4.64-7.11-5-9.46-.36,2.41-2.1,7-5.6,9.46a12.08,12.08,0,0,0-.84-1.45h-7.67v1.45h-2.91V58.6c-.34.37-.68.7-1,1a16.35,16.35,0,0,0-1.77-2.74,17.81,17.81,0,0,0,3.81-5.18H176.6V49.06h1.93a21.12,21.12,0,0,0-2.07-1.32,14.31,14.31,0,0,0,3-5.6l2.94.64a13,13,0,0,1-.62,1.71h8v2.58h-5c-.19.67-.39,1.34-.61,2h6v1.82a34.67,34.67,0,0,0,1.9-8.74l3.17.39c-.2,1.57-.45,3.11-.76,4.59h5.46l.51-.11,2.18.59a71.49,71.49,0,0,1-1.34,7.81l-2.61-.78c.23-1.18.42-2.83.59-4.48h-1.76Zm-16.41-4.08c.25-.65.47-1.32.7-2h-1.18a18.5,18.5,0,0,1-1.29,2Zm2.74,8.37V56.25h-2v1.18Zm-2,3.44h2v-1.2h-2Zm0,3.47h2V63.11h-2Zm1.34-12.62c-.31.72-.67,1.42-1,2.12H184a16.85,16.85,0,0,0,.7-2.12Zm6.25,2.12-.59-.28a14,14,0,0,0,1-1.84H185l2.69.47c-.25.56-.53,1.12-.78,1.65Zm.47,10.5c3.64-3.5,4.43-8.68,4.43-11.2v-3h-.56a22,22,0,0,1-2.1,5,13.44,13.44,0,0,0-2-1.18v2.27h-2.94v1.18h2.66v2.24h-2.66v1.2h2.66v2.24h-2.66v1.23Z"/><path class="cls-1" d="M230.3,53.12v2.52h2.83v3.08H230.3v5.85c0,1.68-.28,2.57-1.4,3.11a12.82,12.82,0,0,1-4.82.56,12.34,12.34,0,0,0-1-3.31c1.4.06,2.91.06,3.36.06s.58-.11.58-.48V58.72h-5.85a22,22,0,0,1,3.36,4.17l-2.66,1.71a22.27,22.27,0,0,0-3.19-4.4l2.41-1.48H217.7V57.23c-.81.25-1.65.53-2.46.79V68.29h-3.06V58.94L208,60.17,207.2,57c1.37-.31,3.11-.76,5-1.26V50.57h-1.87a22.63,22.63,0,0,1-1,3.55,18.21,18.21,0,0,0-2.35-1.51,34.18,34.18,0,0,0,1.6-9l2.77.44q-.16,1.68-.42,3.36h1.31V42.17h3.06V47.4h2.32V50h6.16V47.66h-5v-3h5V42.14H227v2.49h5.16v3H227V50h6.36v3.08Zm-3.28,0h-9.94V50.57h-1.84v4.28l2.57-.73.23,1.52h9Z"/><path class="cls-1" d="M249,49.39H238.08V46.76H249Zm14,5.43A18.84,18.84,0,0,1,258.69,63a18.87,18.87,0,0,0,5.77,2.41,14.65,14.65,0,0,0-2.16,2.88,19.51,19.51,0,0,1-6.16-3.05,22.21,22.21,0,0,1-6.41,3.05A14.2,14.2,0,0,0,248,65.38v1.43h-5.86V67.9h-2.82V58.35H248v7a18.29,18.29,0,0,0,5.65-2.4,19.51,19.51,0,0,1-3.22-4.85l2.86-.92H249.4v-3h.95a14.29,14.29,0,0,0-2.33-2V53.2H239.4V50.65H248V52a6.3,6.3,0,0,0,2.72-5.74V42.92h9.38V49.2c0,.78.06.86.36.86h.7c.37,0,.48-.36.51-2.8a9.21,9.21,0,0,0,2.71,1.18c-.28,3.47-1,4.45-2.88,4.45H259.9c-2.24,0-2.89-.87-2.89-3.64V45.86h-3.13v.48c0,2.63-.56,5.82-3.48,7.81h9.86l.56-.14ZM248,57H239.4V54.49H248ZM248,45.53h-8.46V43H248ZM245.11,61h-3V64.2h3Zm8.26-3.83a13.77,13.77,0,0,0,2.72,3.78,13.22,13.22,0,0,0,2.63-3.78Z"/><path class="cls-1" d="M291,49.11a16.77,16.77,0,0,0,3.08-.19v3.72c-.62-.06-1.6-.08-3.08-.08H288.9v.92c0,6.94-1.68,11.17-8.42,14.14l-3-2.83c5.4-1.87,7.78-4.31,7.78-11.17V52.56h-6.63v3.8c0,1.24.08,2.38.11,2.94h-3.92a23.31,23.31,0,0,0,.17-2.94v-3.8h-2.38c-1.4,0-2.41,0-3,.11V48.86a19.23,19.23,0,0,0,3,.25H275V46.34a21.74,21.74,0,0,0-.17-2.52h4a16.4,16.4,0,0,0-.17,2.55v2.74h6.63V46.17a19.32,19.32,0,0,0-.16-2.6h4a25.53,25.53,0,0,0-.17,2.6v2.94Z"/><path class="cls-1" d="M316.12,63.42a19.82,19.82,0,0,0,.25,3.67H312a32,32,0,0,0,.19-3.67V54.24a54.52,54.52,0,0,1-9.63,3.8l-2-3.41a43.28,43.28,0,0,0,12.74-5.07,29.47,29.47,0,0,0,7.3-6.33l3,2.72a45.71,45.71,0,0,1-7.42,6Z"/><path class="cls-1" d="M352.3,59.42a81,81,0,0,0-10.11-4.18v7.93c0,.81.14,2.77.25,3.89h-4.37a29.56,29.56,0,0,0,.28-3.89V47.1a19.15,19.15,0,0,0-.28-3.39h4.37a30.93,30.93,0,0,0-.25,3.39v4.11a90.85,90.85,0,0,1,11.7,4.34Z"/></g></g></svg>