<svg xmlns="http://www.w3.org/2000/svg" viewBox="0 0 479.88 314.84"><defs><style>.cls-1{fill:#fff;}</style></defs><title>kv-logo</title><g id="レイヤー_2" data-name="レイヤー 2"><g id="レイヤー_1-2" data-name="レイヤー 1"><path class="cls-1" d="M7.44.7H19.63L44.12,56.37,68.14.7H80.39V86.13h-13V32.87h-.29l-17.87,41H38.5l-17.88-41h-.23V86.13H7.44Z"/><path class="cls-1" d="M98.38.7h13V86.13h-13Z"/><path class="cls-1" d="M154.63,73.89q16.63-.24,16.87-11.9.12-9.54-11.13-11.48-5.16-.7-11.31-1.58-11-1.82-16.76-8.15A22.67,22.67,0,0,1,126.39,25q0-11.19,7.44-18Q141,.12,154.28,0,170.21.35,182,8.85l-7.2,10.66A39.2,39.2,0,0,0,153.63,13a16.16,16.16,0,0,0-10,3q-4.15,3.11-4.28,9.26a9.42,9.42,0,0,0,2.88,6.68q2.86,3,9.19,4.21,3.53.58,9.61,1.35,12,1.65,17.76,8.61A24.23,24.23,0,0,1,184.51,62q-.64,24.49-30,24.85-19,0-32.63-11.72l8.49-9.73A37.51,37.51,0,0,0,154.63,73.89Z"/><path class="cls-1" d="M197.4,73.89h12.25V86.13H197.4Z"/><path class="cls-1" d="M219.26.7h13.65l13.42,60.71h.23L263.14.7h9.38L289,61.41h.24L302.75.7h13.66L295.08,86.13H284.24L268,24.55h-.24L251.37,86.13H240.59Z"/><path class="cls-1" d="M32.75,187.89q16.65-.24,16.88-11.9.12-9.54-11.13-11.48-5.16-.7-11.31-1.58-11-1.81-16.76-8.15A22.63,22.63,0,0,1,4.51,139q0-11.19,7.44-18.05,7.22-6.8,20.45-6.91,15.95.34,27.72,8.85l-7.21,10.66A39.19,39.19,0,0,0,31.76,127a16.12,16.12,0,0,0-10,3q-4.17,3.1-4.28,9.26a9.45,9.45,0,0,0,2.87,6.68q2.87,3,9.2,4.21c2.34.39,5.55.84,9.61,1.35q12,1.65,17.75,8.61A24.24,24.24,0,0,1,62.64,176q-.64,24.49-30,24.85-19,0-32.64-11.72l8.5-9.73A37.49,37.49,0,0,0,32.75,187.89Z"/><path class="cls-1" d="M123.05,162.81H89.24v37.32H76.29V114.7H89.24v36.62h33.81V114.7h13v85.43h-13Z"/><path class="cls-1" d="M154,114.7h13v85.43H154Z"/><path class="cls-1" d="M185,114.7h12.19l38.67,60.71h.23V114.7h13v85.43H236.78l-38.62-60.7h-.23v60.7H185Z"/><path class="cls-1" d="M267.07,114.7H280v44h.23l35.16-44h15.35L303.4,148.39l30.23,51.74H318.28L295,158.36l-15,15.76v26H267.07Z"/><path class="cls-1" d="M386.43,181H354l-6.56,19.1H333.75L364.8,114.7h10.84l31.06,85.43H393.05Zm-3.7-11.48-12.36-37.33h-.23l-12.37,37.33Z"/><path class="cls-1" d="M415.84,114.7H428l38.67,60.71h.23V114.7h12.95v85.43H467.64L429,139.43h-.23v60.7h-13Z"/><path class="cls-1" d="M2.29,302.59l33.33-41.72a16,16,0,0,0,2.64-4.69,17.44,17.44,0,0,0,.47-3.86,12.66,12.66,0,0,0-3-8.38q-3.1-3.57-8.79-3.69a11.58,11.58,0,0,0-8.38,3.22,14.05,14.05,0,0,0-4.1,9.08H2.29q.46-10.67,7.14-17.64A22.86,22.86,0,0,1,26,228q11,.12,17.87,7T51,252.43a23.59,23.59,0,0,1-5.16,15L18.34,301.89H51v12.24H2.29Z"/><path class="cls-1" d="M60.59,252.55q.1-11.84,7.55-18.22A23.93,23.93,0,0,1,84.79,228a24.29,24.29,0,0,1,16.93,6.33q7.08,6.39,7.32,18.22v37.68q-.23,11.77-7.32,18.16a24.76,24.76,0,0,1-16.93,6.45,24.41,24.41,0,0,1-16.65-6.45Q60.7,302,60.59,290.23Zm36.21.76q-.36-12.83-12-13.06-11.73.23-12,13.06v36.21q.24,13,12,13.07,11.65-.12,12-13.07Z"/><path class="cls-1" d="M117.48,302.59l33.34-41.72a16,16,0,0,0,2.64-4.69,17.44,17.44,0,0,0,.47-3.86,12.66,12.66,0,0,0-3-8.38q-3.1-3.57-8.79-3.69a11.58,11.58,0,0,0-8.38,3.22q-3.47,3.22-4.1,9.08H117.48q.47-10.67,7.15-17.64A22.85,22.85,0,0,1,141.21,228q11,.12,17.87,7t7.09,17.4a23.63,23.63,0,0,1-5.15,15l-27.48,34.46h32.63v12.24H117.48Z"/><path class="cls-1" d="M175.78,252.55q.12-11.84,7.56-18.22A23.92,23.92,0,0,1,200,228a24.29,24.29,0,0,1,16.93,6.33q7.09,6.39,7.33,18.22v37.68Q224,302,216.91,308.39A24.76,24.76,0,0,1,200,314.84a24.4,24.4,0,0,1-16.64-6.45q-7.44-6.39-7.56-18.16Zm36.21.76q-.35-12.83-12-13.06-11.72.23-11.95,13.06v36.21q.22,13,11.95,13.07,11.66-.12,12-13.07Z"/></g></g></svg>