<svg xmlns="http://www.w3.org/2000/svg" viewBox="0 0 233.63 77.5"><defs><style>.cls-1{fill:#fff;}</style></defs><title>section_heading_garelly</title><g id="レイヤー_2" data-name="レイヤー 2"><g id="レイヤー_1-2" data-name="レイヤー 1"><path class="cls-1" d="M10.86,11V34.8H20.4V23.94H12.9V13H31.26V45.6H5.4A5.33,5.33,0,0,1,0,40.26V5.58A5.39,5.39,0,0,1,5.4.12H31.26V11Z"/><path class="cls-1" d="M66.24,0V45.6H55.32V10.92H47.16V25.86h6.12V36.78H47.16V45.6H36.3V5.46A5.48,5.48,0,0,1,41.76,0Z"/><path class="cls-1" d="M88.62,45.6,84.18,38V21.84H90.3V10.92H82.14V45.6H71.28V.06H95.76a5.39,5.39,0,0,1,5.4,5.46V27.24a5.43,5.43,0,0,1-5.4,5.46h-2l7.44,12.9Z"/><path class="cls-1" d="M117.12,11v2h16.32V23.94H117.12V34.8h16.32V45.6H106.2v-40A5.44,5.44,0,0,1,111.66.12h21.78V11Z"/><path class="cls-1" d="M165.72,34.74V45.6H143.94a5.43,5.43,0,0,1-5.46-5.4V.06h10.86V34.74Z"/><path class="cls-1" d="M198,34.74V45.6H176.22a5.43,5.43,0,0,1-5.46-5.4V.06h10.86V34.74Z"/><path class="cls-1" d="M223.44,32.76v2h9.48V45.6H218a5.39,5.39,0,0,1-5.46-5.4V32.76h-4.08A5.43,5.43,0,0,1,203,27.3V.06H213.9V21.84h8.16V.12H233V32.76Z"/><path class="cls-1" d="M132.59,62.64v1.87h-5.37l.43,3.41h5.57V74.5h-4.71l.36,2.81h-7l-.36-2.81h-9.94V67.92h9.12l-.43-3.41h-8.66V57.86h7.8l-.2-1.51h7l.21,1.51H128V56.3h5.84V59h-4.64v.91h4.64v2.71Z"/><path class="cls-1" d="M149.27,74.81h-2.18V69.29h2.18c1.71,0,2-.41,2-1.7v-.48H146.1l.34,10.39H141l-.38-10.39h-1.82v-5.4h1.63l0-1.25h5.45l0,1.25h10.92V66.1C156.83,72.46,155.18,74.81,149.27,74.81Z"/><path class="cls-1" d="M173.51,77.43h-9.77V70.85h10.52c1.72,0,2.25-.43,2.25-1.27v-.43H161.87V63.43h22v5C183.88,73.51,181.65,77.43,173.51,77.43ZM162.23,62.52V56.76H183.4v5.76Z"/><path class="cls-1" d="M187.84,68.83V56.57h7.06V68.83Zm8.78,8.6h-6.17v-7h6c3.53,0,4.92-1.37,4.92-5.45V56.57h7.08v8.54C208.41,74.86,204.14,77.43,196.62,77.43Z"/><path class="cls-1" d="M213.06,70.27V63.12h20.57v7.15Z"/></g></g></svg>