<svg xmlns="http://www.w3.org/2000/svg" viewBox="0 0 261.12 77.49"><defs><style>.cls-1{fill:#fff;}</style></defs><title>section_heading_schedule</title><g id="レイヤー_2" data-name="レイヤー 2"><g id="レイヤー_1-2" data-name="レイヤー 1"><path class="cls-1" d="M10.92,10.86v2H23.16a5.43,5.43,0,0,1,5.4,5.46V40.14a5.38,5.38,0,0,1-5.4,5.4H0V34.68H17.7V23.82H5.46A5.48,5.48,0,0,1,0,18.36V5.46A5.44,5.44,0,0,1,5.46,0h23.1V10.86Z"/><path class="cls-1" d="M44.46,10.92V34.74h15v10.8H39.06A5.38,5.38,0,0,1,33.6,40.2V5.52A5.44,5.44,0,0,1,39.06.06h20.4V10.92Z"/><path class="cls-1" d="M94.38.06V45.54H83.52V23.88H75.36V45.54H64.5V.06H75.36V13h8.16V.06Z"/><path class="cls-1" d="M110.34,10.92v2h16.32V23.88H110.34V34.74h16.32v10.8H99.42v-40A5.44,5.44,0,0,1,104.88.06h21.78V10.92Z"/><path class="cls-1" d="M161.64,5.52V40.2a5.38,5.38,0,0,1-5.46,5.34H144.66V34.74h6.12V10.92h-8.16V45.54H131.7V.06h24.48A5.44,5.44,0,0,1,161.64,5.52Z"/><path class="cls-1" d="M196.56,0V45.54H172.08a5.38,5.38,0,0,1-5.4-5.4V0h10.86V34.68h8.16V0Z"/><path class="cls-1" d="M228.84,34.68V45.54H207.06a5.43,5.43,0,0,1-5.46-5.4V0h10.86V34.68Z"/><path class="cls-1" d="M244.8,10.92v2h16.32V23.88H244.8V34.74h16.32v10.8H233.88v-40A5.44,5.44,0,0,1,239.34.06h21.78V10.92Z"/><path class="cls-1" d="M118.17,74.56a23.81,23.81,0,0,1-12.27,2.93V70.43c9.48,0,12.15-4.68,12.15-6.65v-.5H106.67V56.89h18.77v5.28a14.38,14.38,0,0,1-2.11,7.35,12.5,12.5,0,0,0,4.7.77v7C122.63,77.27,120.88,76.43,118.17,74.56Z"/><path class="cls-1" d="M152,64.86v1.37c0,7.44-3.77,11.11-12.19,11.11h-6.05v-7h6.05c3.89,0,4.94-1.8,4.94-4.08V64.86h-5.73c-1.3,2.09-3.46,3.48-6.82,3.91V61.19c1-.48,1.37-1.08,1.37-2.71v-2h7V58h13.57v6.91Z"/><path class="cls-1" d="M180.11,65.7c-1.08,6.94-3.91,11.57-14.74,11.57h-6.45V70.79h5.64c5.9,0,7.75-1.9,8.49-6.12a3,3,0,0,1,.48-1.32H181v.1C180.64,63.68,180.3,64.41,180.11,65.7ZM159.2,62.53V56.82h10.57v5.71Zm0,6.6V63.45h10.57v5.68Zm16.11-10.22V56.17h5.83v2.74Zm0,3.62V59.82h5.83v2.71Z"/><path class="cls-1" d="M187.19,77.29V71.8h10.44V67.24a.78.78,0,0,0-.89-.82h-8.57v-5.5h8.57c5.86,0,6.72.92,6.72,6.2V71.8h1.61v5.49Z"/><path class="cls-1" d="M212.24,70.17V63h20.57v7.16Z"/><path class="cls-1" d="M237.8,77.32V69.85c1-.24,1.3-.69,1.3-3V56.44h6.19v9.79C245.29,74.17,243.13,76.89,237.8,77.32Zm16.13-12.75v.05c0,4.51-.88,5.38-1.17,5.38h-.29l.12-1.23V56.44h-6.34V77.32h6c5.66,0,8-4.08,8-12.75Zm6.34,0v0Z"/></g></g></svg>