<svg xmlns="http://www.w3.org/2000/svg" viewBox="0 0 179.4 77.67"><defs><style>.cls-1{fill:#fff;}</style></defs><title>アセット 4</title><g id="レイヤー_2" data-name="レイヤー 2"><g id="レイヤー_1-2" data-name="レイヤー 1"><path class="cls-1" d="M29.94,0V45.6H19V10.92H10.86V25.86H17V36.78H10.86V45.6H0V5.46A5.48,5.48,0,0,1,5.46,0Z"/><path class="cls-1" d="M67.68,18.42V40.14a5.48,5.48,0,0,1-5.46,5.46H47.94V34.74h8.82V23.88H47.94V13H51.3v-2H45.9V45.6H35V.06H56.76a5.43,5.43,0,0,1,5.46,5.4V13A5.48,5.48,0,0,1,67.68,18.42Z"/><path class="cls-1" d="M102.66.06V40.2a5.43,5.43,0,0,1-5.46,5.4H85.62V34.74h6.12V10.92H83.58V45.6H72.72V5.52A5.39,5.39,0,0,1,78.12.06Z"/><path class="cls-1" d="M137.58.06V45.6H113.1a5.38,5.38,0,0,1-5.4-5.4V.06h10.86V34.74h8.16V.06Z"/><path class="cls-1" d="M179.4,10.92h-13V45.6H155.58V10.92h-13V.06H179.4Z"/><path class="cls-1" d="M93.47,71.55H90.93c-.41,3.55-2.91,5.83-7.61,5.83H79.09V70.59h3.15c1.6,0,1.87-.44,1.87-1.76V64.75h8.74a1,1,0,0,0,1.05-1.08v-.5H79.09V56.76h21.75v7.06C100.84,68.69,98.15,71.55,93.47,71.55Z"/><path class="cls-1" d="M105.16,77.67V70.15c1.77-.36,2.32-1.41,2.32-3.4V56.45h6.84V66.58C114.32,73.15,111.32,77,105.16,77.67Zm19.89-14.86v3.94c0,2,.63,3.09,2.33,3.4v7.52c-6.14-.7-9.17-4.52-9.17-11.09V56.45h9.39v2.74h-5v.93h5v2.69Z"/><path class="cls-1" d="M141.18,77.38h-6V70.51h6.1c4.41,0,5.49-1.15,5.49-5v-.7h-8v3.49h-7V57.74h7.1V56.09h7.82v1.65h7.21v8.12C153.81,72.79,151.21,77.38,141.18,77.38Z"/><path class="cls-1" d="M176,71.38a28.84,28.84,0,0,1-9.27-1.25v7.25h-7.37V56.26h7.37v5c0,2.28,3.75,3.07,9.27,3.07h3v7.06Z"/></g></g></svg>