<svg xmlns="http://www.w3.org/2000/svg" viewBox="0 0 353.13 77.74"><defs><style>.cls-1{fill:#fff;}</style></defs><title>section_heading_info</title><g id="レイヤー_2" data-name="レイヤー 2"><g id="レイヤー_1-2" data-name="レイヤー 1"><path class="cls-1" d="M10.86,45.6H0V.12H10.86Z"/><path class="cls-1" d="M49.92,0V45.6H39L26.76,22.92V45.6H15.9V5.46A5.47,5.47,0,0,1,21.3,0h5.46L39,22.68V0Z"/><path class="cls-1" d="M65.88,11v2H82.2V23.94H65.88V45.6H55v-40A5.44,5.44,0,0,1,60.42.12H82.2V11Z"/><path class="cls-1" d="M117.18.06V40.2a5.43,5.43,0,0,1-5.46,5.4H100.14V34.74h6.12V10.92H98.1V45.6H87.24V5.52A5.39,5.39,0,0,1,92.64.06Z"/><path class="cls-1" d="M139.56,45.6,135.12,38V21.84h6.12V10.92h-8.16V45.6H122.22V.06H146.7a5.39,5.39,0,0,1,5.4,5.46V27.24a5.43,5.43,0,0,1-5.4,5.46h-2l7.44,12.9Z"/><path class="cls-1" d="M199.32,0V45.6H188.4V10.92h-4.74V32.7H172.74V10.92H168V45.6H157.14V5.46A5.43,5.43,0,0,1,162.54,0Z"/><path class="cls-1" d="M234.3,0V45.6H223.38V10.92h-8.16V25.86h6.12V36.78h-6.12V45.6H204.36V5.46A5.48,5.48,0,0,1,209.82,0Z"/><path class="cls-1" d="M276.12,10.92h-13V45.6H252.3V10.92h-13V.06h36.78Z"/><path class="cls-1" d="M279.06,45.6H268.2V.12h10.86Z"/><path class="cls-1" d="M314,.06V40.2a5.43,5.43,0,0,1-5.46,5.4H297V34.74h6.12V10.92H295V45.6H284.1V5.52A5.39,5.39,0,0,1,289.5.06Z"/><path class="cls-1" d="M353.1,0V45.6H342.18L329.94,22.92V45.6H319.08V5.46A5.47,5.47,0,0,1,324.48,0h5.46l12.24,22.68V0Z"/><path class="cls-1" d="M140.09,63.39a8.69,8.69,0,0,0-4.16.79V77.74h-7V68.07l-.86.48a14.47,14.47,0,0,1-7,1.39h-1.29v-7h1.58a6.74,6.74,0,0,0,4-1.1l8-4.22a10,10,0,0,1,5.33-1.23h3.51v7Z"/><path class="cls-1" d="M167.28,66c-1.08,8-5.59,11.31-14.28,11.31h-6.63V70.56h5.79c6.29,0,7.49-1.87,8.11-5,1.15-5.74,2.54-7.94,8.06-8.59v7.7A1.41,1.41,0,0,0,167.28,66Zm-20.84-2.11V57.22h9.94v6.69Z"/><path class="cls-1" d="M177.72,77.59H173.8v-7h4.13c6.72,0,9.2-1.51,9.2-5.73V63.7H172.92V57.07h21.31v7.59C194.23,73.68,187.8,77.59,177.72,77.59Z"/><path class="cls-1" d="M217.41,67.68v9.67H211.7V67.68h-.36l-1.15,2.67c-2.54,5.9-4.44,6.74-8.23,6.74h-.53V71.35h.38c1.18,0,1.95-.43,2.88-2.61l.46-1.06h-3.84V62.14H211.7V60.41h5.71v1.73H219v5.54Z"/><path class="cls-1" d="M240.74,75.24V73.83a2.15,2.15,0,0,0-1.61-2.36l-.69-.31-1.78,2c-2.76,3.17-5.38,4.18-8.21,4.18h-2.81V70.61h.8a5.93,5.93,0,0,0,5-2.28l.39-.43-5.23-2.59V57.77l9.91,5,3.14-3.45c2.19-2.41,4.23-3.29,7.83-3.29v7a3.34,3.34,0,0,0-3,1.29L242.93,66l.26.13c3.05,1.39,4.75,3.91,4.75,7.87v1.22Z"/><path class="cls-1" d="M252.64,70.23V63.07h20.57v7.16Z"/><path class="cls-1" d="M299.33,66.63c-.77,6.14-3.51,10.7-14.36,10.7h-6.45V70.85h5.64c5.9,0,7.61-1.63,8.35-5.86,1-5.83,3.58-7.89,7.85-8v7.68C299.66,64.8,299.52,65.16,299.33,66.63Zm-20.53-4V56.88h9.87v5.71Zm0,6.6V63.51h9.87v5.68Z"/><path class="cls-1" d="M307,77.38V72.12h11.28V71H308V67h10.22c0-.82-.12-1.06-.89-1.06H307V61h10.16c5.4,0,7,1.35,7,6.1v10.3Z"/><path class="cls-1" d="M352.08,66c-1.08,8-5.59,11.31-14.28,11.31h-6.63V70.56H337c6.29,0,7.49-1.87,8.11-5,1.15-5.74,2.54-7.94,8.06-8.59v7.7A1.41,1.41,0,0,0,352.08,66Zm-20.84-2.11V57.22h9.94v6.69Z"/></g></g></svg>