<svg xmlns="http://www.w3.org/2000/svg" viewBox="0 0 208.5 77.55"><defs><style>.cls-1{fill:#fff;}</style></defs><title>section_heading_special</title><g id="レイヤー_2" data-name="レイヤー 2"><g id="レイヤー_1-2" data-name="レイヤー 1"><path class="cls-1" d="M10.92,10.92v2H23.16a5.43,5.43,0,0,1,5.4,5.46V40.2a5.38,5.38,0,0,1-5.4,5.4H0V34.74H17.7V23.88H5.46A5.48,5.48,0,0,1,0,18.42V5.52A5.44,5.44,0,0,1,5.46.06h23.1V10.92Z"/><path class="cls-1" d="M62.16,31.32a5.43,5.43,0,0,1-5.4,5.46H44.52V45.6H33.6V13H44.52v13H51.3v-15H33.6V.06H56.76a5.39,5.39,0,0,1,5.4,5.46Z"/><path class="cls-1" d="M78.12,11v2H94.44V23.94H78.12V34.8H94.44V45.6H67.2v-40A5.44,5.44,0,0,1,72.66.12H94.44V11Z"/><path class="cls-1" d="M110.34,11V34.8h15V45.6h-20.4a5.38,5.38,0,0,1-5.46-5.34V5.58A5.44,5.44,0,0,1,104.94.12h20.4V11Z"/><path class="cls-1" d="M141.24,45.6H130.38V.12h10.86Z"/><path class="cls-1" d="M176.22,0V45.6H165.3V10.92h-8.16V25.86h6.12V36.78h-6.12V45.6H146.28V5.46A5.48,5.48,0,0,1,151.74,0Z"/><path class="cls-1" d="M208.5,34.74V45.6H186.72a5.43,5.43,0,0,1-5.46-5.4V.06h10.86V34.74Z"/><path class="cls-1" d="M92.17,74.62A23.79,23.79,0,0,1,79.9,77.55V70.49c9.48,0,12.15-4.68,12.15-6.65v-.5H80.67V57H99.44v5.28a14.38,14.38,0,0,1-2.11,7.35,12.5,12.5,0,0,0,4.7.76v7C96.63,77.33,94.88,76.49,92.17,74.62Z"/><path class="cls-1" d="M125.5,61.8a4.44,4.44,0,0,1-2-.38.6.6,0,0,1,.08.21L126.13,70c.09.34.36.6,1,.6h1.27v7h-2.91c-3.5,0-4.92-2.33-5.66-4.93l-2.14-7.36a1.9,1.9,0,0,0-1.87-1.64H115c-.76,0-1.32.68-1.39,1.95l-.45,7.32h-6.92l.65-9.58c.27-3.79,2.74-6.77,6.7-6.77h2.47c3,0,4.85,1,6.05,2.31,0-.1,0-.19,0-.31,0-2.24,1.13-3.27,3.41-3.27s3.39,1,3.39,3.27S127.73,61.8,125.5,61.8Zm0-4.13c-.57,0-.84.22-.84.79s.27.87.84.87.79-.19.79-.87S126,57.67,125.5,57.67Z"/><path class="cls-1" d="M153.73,66.62c-.77,6.15-3.51,10.71-14.36,10.71h-6.45V70.85h5.64c5.9,0,7.61-1.63,8.35-5.86,1-5.83,3.58-7.89,7.85-8v7.68C154.06,64.8,153.92,65.16,153.73,66.62Zm-20.53-4V56.88h9.87v5.71Zm0,6.6V63.5h9.87v5.69Z"/><path class="cls-1" d="M171.65,74.76h-2.18V69.24h2.18c1.71,0,2-.41,2-1.7v-.48h-5.18l.33,10.39H163.4L163,67.06h-1.82v-5.4h1.63l0-1.25h5.45l0,1.25h10.92v4.39C179.21,72.41,177.56,74.76,171.65,74.76Z"/><path class="cls-1" d="M185.4,77.38V69.91c1-.24,1.3-.69,1.3-3V56.5h6.19v9.79C192.89,74.23,190.73,77,185.4,77.38Zm16.13-12.75v.05c0,4.51-.88,5.38-1.17,5.38h-.29l.12-1.23V56.5h-6.34V77.38h6c5.66,0,8-4.08,8-12.75Zm6.34,0v0Z"/></g></g></svg>