<svg xmlns="http://www.w3.org/2000/svg" viewBox="0 0 198.18 45.54"><defs><style>.cls-1{fill:#fff;}</style></defs><title>twitter-link</title><g id="レイヤー_2" data-name="レイヤー 2"><g id="レイヤー_1-2" data-name="レイヤー 1"><path class="cls-1" d="M36.78,10.86h-13V45.54H13V10.86H0V0H36.78Z"/><path class="cls-1" d="M64.2,45.54H28.86V12.9H39.72V34.68H43.8V12.9H54.66V34.68h4.08V12.9H69.66V40.14A5.43,5.43,0,0,1,64.2,45.54Z"/><path class="cls-1" d="M85.56,10.86H74.7V0H85.56Zm-10.86,2H85.56V45.54H74.7Z"/><path class="cls-1" d="M106.92,23.82V34.68h5.4V45.54H101.46A5.43,5.43,0,0,1,96,40.14V23.82H90.6V12.9H96V0h10.92V12.9h5.4V23.82Z"/><path class="cls-1" d="M133.68,23.82V34.68h5.4V45.54H128.22a5.43,5.43,0,0,1-5.46-5.4V23.82h-5.4V12.9h5.4V0h10.92V12.9h5.4V23.82Z"/><path class="cls-1" d="M171.36,18.36V32.64H160.44V23.76H155V34.68h16.32V45.54H149.58a5.43,5.43,0,0,1-5.46-5.4V18.36a5.48,5.48,0,0,1,5.46-5.46H165.9A5.48,5.48,0,0,1,171.36,18.36Z"/><path class="cls-1" d="M198.18,12.9V23.82H187.26V45.54H176.4V18.36a5.43,5.43,0,0,1,5.4-5.46Z"/></g></g></svg>