<svg xmlns="http://www.w3.org/2000/svg" viewBox="0 0 212.94 45.6"><defs><style>.cls-1{fill:#fff;}</style></defs><title>website-link</title><g id="レイヤー_2" data-name="レイヤー 2"><g id="レイヤー_1-2" data-name="レイヤー 1"><path class="cls-1" d="M5.46,45.6A5.44,5.44,0,0,1,0,40.14V0H10.92V34.74h4.74V13H26.58V34.74h4.74V0H42.18V45.6Z"/><path class="cls-1" d="M74.46,18.42V32.7H63.54V23.82h-5.4V34.74H74.46V45.6H52.68a5.43,5.43,0,0,1-5.46-5.4V18.42A5.48,5.48,0,0,1,52.68,13H69A5.48,5.48,0,0,1,74.46,18.42Z"/><path class="cls-1" d="M106.68,40.2a5.43,5.43,0,0,1-5.46,5.4H79.5V25.92H90.36v8.82h5.46V23.88H79.5V.06H90.36V13h10.86a5.48,5.48,0,0,1,5.46,5.46Z"/><path class="cls-1" d="M138,45.6H111.72V34.74h10.86L111.72,23.88V18.42a5.43,5.43,0,0,1,5.4-5.46H138V23.88H127.08L138,34.74Z"/><path class="cls-1" d="M153.9,10.92H143V.06H153.9ZM143,13H153.9V45.6H143Z"/><path class="cls-1" d="M175.26,23.88V34.74h5.4V45.6H169.8a5.43,5.43,0,0,1-5.46-5.4V23.88h-5.4V13h5.4V.06h10.92V13h5.4V23.88Z"/><path class="cls-1" d="M212.94,18.42V32.7H202V23.82h-5.4V34.74h16.32V45.6H191.16a5.43,5.43,0,0,1-5.46-5.4V18.42A5.48,5.48,0,0,1,191.16,13h16.32A5.48,5.48,0,0,1,212.94,18.42Z"/></g></g></svg>