<svg id="LINE_LOGO" data-name="LINE LOGO" xmlns="http://www.w3.org/2000/svg" viewBox="0 0 120 120"><defs><style>.cls-1{fill:#00b900;}.cls-2{fill:#fff;}</style></defs><title>LINE_SOCIAL_Basic_RGB</title><g id="FULL_COLOR_ICON" data-name="FULL COLOR ICON"><rect class="cls-1" width="120" height="120" rx="26"/><g id="TYPE_A" data-name="TYPE A"><path class="cls-2" d="M464.44,293.26c0-19.55-19.6-35.46-43.69-35.46s-43.69,15.91-43.69,35.46c0,17.53,15.54,32.21,36.54,35,1.42.31,3.36.94,3.85,2.16a8.93,8.93,0,0,1,.14,4l-.62,3.74c-.19,1.1-.88,4.32,3.78,2.35s25.16-14.81,34.33-25.36h0c6.33-6.95,9.36-14,9.36-21.82" transform="translate(-360.94 -238.54)"/><path class="cls-1" d="M411.87,283.81h-3.06a.85.85,0,0,0-.85.85v19a.85.85,0,0,0,.85.85h3.06a.85.85,0,0,0,.85-.85v-19a.85.85,0,0,0-.85-.85" transform="translate(-360.94 -238.54)"/><path class="cls-1" d="M433,283.81H429.9a.85.85,0,0,0-.85.85V296l-8.72-11.78-.07-.09h0l-.06-.05v0l-.05,0h0l0,0,0,0,0,0,0,0-.05,0h-3.38a.85.85,0,0,0-.85.85v19a.85.85,0,0,0,.85.85h3.07a.85.85,0,0,0,.85-.85V292.39l8.74,11.8a.84.84,0,0,0,.21.21h0l.05,0h0a.05.05,0,0,0,0,0l0,0h0l.06,0h0a.83.83,0,0,0,.22,0H433a.85.85,0,0,0,.85-.85v-19a.85.85,0,0,0-.85-.85" transform="translate(-360.94 -238.54)"/><path class="cls-1" d="M404.49,299.78h-8.33V284.66a.85.85,0,0,0-.85-.85h-3.07a.85.85,0,0,0-.85.85v19h0a.85.85,0,0,0,.24.59h0a.85.85,0,0,0,.59.24h12.25a.85.85,0,0,0,.85-.85v-3.07a.85.85,0,0,0-.85-.85" transform="translate(-360.94 -238.54)"/><path class="cls-1" d="M449.89,288.58a.85.85,0,0,0,.85-.85v-3.07a.85.85,0,0,0-.85-.85H437.65a.83.83,0,0,0-.59.24h0l0,0a.86.86,0,0,0-.23.58h0v19h0a.83.83,0,0,0,.24.59h0a.83.83,0,0,0,.59.24h12.24a.85.85,0,0,0,.85-.85v-3.07a.85.85,0,0,0-.85-.85h-8.33v-3.22h8.33a.85.85,0,0,0,.85-.85v-3.06a.85.85,0,0,0-.85-.85h-8.33v-3.22Z" transform="translate(-360.94 -238.54)"/></g></g></svg>